<mxfile host="Electron" agent="Mozilla/5.0 (Macintosh; Intel Mac OS X 10_15_7) AppleWebKit/537.36 (KHTML, like Gecko) draw.io/25.0.2 Chrome/128.0.6613.186 Electron/32.2.5 Safari/537.36" version="25.0.2" pages="9">
  <diagram name="running-header" id="pbEGmaJblJbj0O6aaGsn">
    <mxGraphModel dx="1242" dy="878" grid="1" gridSize="10" guides="1" tooltips="1" connect="1" arrows="1" fold="1" page="1" pageScale="1" pageWidth="827" pageHeight="1169" math="0" shadow="0">
      <root>
        <mxCell id="_S9OR4wrIAQOZtHoxr_9-0" />
        <mxCell id="_S9OR4wrIAQOZtHoxr_9-1" parent="_S9OR4wrIAQOZtHoxr_9-0" />
        <mxCell id="_S9OR4wrIAQOZtHoxr_9-2" value="" style="rounded=0;whiteSpace=wrap;html=1;fontFamily=Roboto;fontSource=https%3A%2F%2Ffonts.googleapis.com%2Fcss%3Ffamily%3DRoboto;fontSize=26;strokeColor=#10739e;fillColor=#b1ddf0;" parent="_S9OR4wrIAQOZtHoxr_9-1" vertex="1">
          <mxGeometry x="320" y="350" width="320" height="300" as="geometry" />
        </mxCell>
        <mxCell id="_S9OR4wrIAQOZtHoxr_9-3" value="" style="rounded=0;whiteSpace=wrap;html=1;fontFamily=Roboto;fontSource=https%3A%2F%2Ffonts.googleapis.com%2Fcss%3Ffamily%3DRoboto;fontSize=26;fontColor=#FF3333;strokeColor=#E6E6E6;fillColor=default;" parent="_S9OR4wrIAQOZtHoxr_9-1" vertex="1">
          <mxGeometry x="360" y="375" width="230" height="255" as="geometry" />
        </mxCell>
        <mxCell id="_S9OR4wrIAQOZtHoxr_9-4" value="&lt;font size=&quot;1&quot;&gt;&lt;b style=&quot;&quot;&gt;&lt;font style=&quot;font-size: 34px;&quot; face=&quot;Verdana&quot;&gt;Running Header&lt;/font&gt;&lt;br&gt;&lt;/b&gt;&lt;/font&gt;" style="text;html=1;strokeColor=#ae4132;fillColor=#EA6B66;align=center;verticalAlign=middle;whiteSpace=wrap;rounded=0;fontFamily=Roboto;fontSource=https%3A%2F%2Ffonts.googleapis.com%2Fcss%3Ffamily%3DRoboto;fontSize=16;fontColor=#FCFCFC;" parent="_S9OR4wrIAQOZtHoxr_9-1" vertex="1">
          <mxGeometry x="319" y="270" width="321" height="80" as="geometry" />
        </mxCell>
        <mxCell id="_S9OR4wrIAQOZtHoxr_9-6" value="&lt;div style=&quot;&quot;&gt;&lt;font style=&quot;font-size: 26px;&quot;&gt;top of every page&lt;/font&gt;&lt;/div&gt;" style="text;html=1;strokeColor=none;fillColor=none;align=center;verticalAlign=top;whiteSpace=wrap;rounded=0;fontFamily=Roboto;fontSource=https%3A%2F%2Ffonts.googleapis.com%2Fcss%3Ffamily%3DRoboto;fontSize=18;fontColor=#1A1A1A;horizontal=1;fontStyle=1" parent="_S9OR4wrIAQOZtHoxr_9-1" vertex="1">
          <mxGeometry x="360" y="389" width="230" height="40" as="geometry" />
        </mxCell>
        <mxCell id="_S9OR4wrIAQOZtHoxr_9-7" value="" style="group;strokeWidth=2;strokeColor=none;" parent="_S9OR4wrIAQOZtHoxr_9-1" vertex="1" connectable="0">
          <mxGeometry x="409" y="470" width="132" height="101" as="geometry" />
        </mxCell>
        <mxCell id="_S9OR4wrIAQOZtHoxr_9-8" value="" style="endArrow=none;dashed=1;html=1;dashPattern=1 3;strokeWidth=2;rounded=0;" parent="_S9OR4wrIAQOZtHoxr_9-7" edge="1">
          <mxGeometry width="50" height="50" relative="1" as="geometry">
            <mxPoint x="132" as="sourcePoint" />
            <mxPoint x="2" as="targetPoint" />
          </mxGeometry>
        </mxCell>
        <mxCell id="_S9OR4wrIAQOZtHoxr_9-9" value="" style="endArrow=none;dashed=1;html=1;dashPattern=1 3;strokeWidth=2;rounded=0;" parent="_S9OR4wrIAQOZtHoxr_9-7" edge="1">
          <mxGeometry width="50" height="50" relative="1" as="geometry">
            <mxPoint x="131" y="20" as="sourcePoint" />
            <mxPoint x="1" y="20" as="targetPoint" />
          </mxGeometry>
        </mxCell>
        <mxCell id="_S9OR4wrIAQOZtHoxr_9-10" value="" style="endArrow=none;dashed=1;html=1;dashPattern=1 3;strokeWidth=2;rounded=0;" parent="_S9OR4wrIAQOZtHoxr_9-7" edge="1">
          <mxGeometry width="50" height="50" relative="1" as="geometry">
            <mxPoint x="130" y="41" as="sourcePoint" />
            <mxPoint y="41" as="targetPoint" />
          </mxGeometry>
        </mxCell>
        <mxCell id="_S9OR4wrIAQOZtHoxr_9-11" value="" style="endArrow=none;dashed=1;html=1;dashPattern=1 3;strokeWidth=2;rounded=0;" parent="_S9OR4wrIAQOZtHoxr_9-7" edge="1">
          <mxGeometry width="50" height="50" relative="1" as="geometry">
            <mxPoint x="131" y="60" as="sourcePoint" />
            <mxPoint x="1" y="60" as="targetPoint" />
          </mxGeometry>
        </mxCell>
        <mxCell id="_S9OR4wrIAQOZtHoxr_9-12" value="" style="endArrow=none;dashed=1;html=1;dashPattern=1 3;strokeWidth=2;rounded=0;" parent="_S9OR4wrIAQOZtHoxr_9-7" edge="1">
          <mxGeometry width="50" height="50" relative="1" as="geometry">
            <mxPoint x="132" y="80" as="sourcePoint" />
            <mxPoint x="2" y="80" as="targetPoint" />
          </mxGeometry>
        </mxCell>
        <mxCell id="_S9OR4wrIAQOZtHoxr_9-13" value="" style="endArrow=none;dashed=1;html=1;dashPattern=1 3;strokeWidth=2;rounded=0;" parent="_S9OR4wrIAQOZtHoxr_9-7" edge="1">
          <mxGeometry width="50" height="50" relative="1" as="geometry">
            <mxPoint x="131" y="101" as="sourcePoint" />
            <mxPoint x="1" y="101" as="targetPoint" />
          </mxGeometry>
        </mxCell>
      </root>
    </mxGraphModel>
  </diagram>
  <diagram name="page-number" id="ScG3zRtLRPp0Ox7Q4MoU">
    <mxGraphModel dx="1242" dy="878" grid="1" gridSize="10" guides="1" tooltips="1" connect="1" arrows="1" fold="1" page="1" pageScale="1" pageWidth="827" pageHeight="1169" math="0" shadow="0">
      <root>
        <mxCell id="ubcimJoNjPYLT8qePHkx-0" />
        <mxCell id="ubcimJoNjPYLT8qePHkx-1" parent="ubcimJoNjPYLT8qePHkx-0" />
        <mxCell id="ubcimJoNjPYLT8qePHkx-2" value="" style="rounded=0;whiteSpace=wrap;html=1;fontFamily=Roboto;fontSource=https%3A%2F%2Ffonts.googleapis.com%2Fcss%3Ffamily%3DRoboto;fontSize=26;strokeColor=#10739e;fillColor=#b1ddf0;" vertex="1" parent="ubcimJoNjPYLT8qePHkx-1">
          <mxGeometry x="320" y="350" width="320" height="300" as="geometry" />
        </mxCell>
        <mxCell id="ubcimJoNjPYLT8qePHkx-3" value="" style="rounded=0;whiteSpace=wrap;html=1;fontFamily=Roboto;fontSource=https%3A%2F%2Ffonts.googleapis.com%2Fcss%3Ffamily%3DRoboto;fontSize=26;fontColor=#FF3333;strokeColor=#E6E6E6;fillColor=default;" vertex="1" parent="ubcimJoNjPYLT8qePHkx-1">
          <mxGeometry x="360" y="375" width="230" height="255" as="geometry" />
        </mxCell>
        <mxCell id="ubcimJoNjPYLT8qePHkx-4" value="&lt;font size=&quot;1&quot;&gt;&lt;b style=&quot;&quot;&gt;&lt;font style=&quot;font-size: 34px;&quot; face=&quot;Verdana&quot;&gt;Page Numbers&lt;/font&gt;&lt;br&gt;&lt;/b&gt;&lt;/font&gt;" style="text;html=1;strokeColor=#ae4132;fillColor=#EA6B66;align=center;verticalAlign=middle;whiteSpace=wrap;rounded=0;fontFamily=Roboto;fontSource=https%3A%2F%2Ffonts.googleapis.com%2Fcss%3Ffamily%3DRoboto;fontSize=16;fontColor=#FCFCFC;" vertex="1" parent="ubcimJoNjPYLT8qePHkx-1">
          <mxGeometry x="319" y="270" width="321" height="80" as="geometry" />
        </mxCell>
        <mxCell id="ubcimJoNjPYLT8qePHkx-5" value="&lt;div&gt;&lt;font style=&quot;font-size: 25px;&quot;&gt;17 of 112&lt;/font&gt;&lt;/div&gt;" style="text;html=1;strokeColor=none;fillColor=none;align=center;verticalAlign=top;whiteSpace=wrap;rounded=0;fontFamily=Roboto;fontSource=https%3A%2F%2Ffonts.googleapis.com%2Fcss%3Ffamily%3DRoboto;fontSize=24;fontColor=#1A1A1A;horizontal=1;fontStyle=1" vertex="1" parent="ubcimJoNjPYLT8qePHkx-1">
          <mxGeometry x="425.12" y="585" width="203.88" height="40" as="geometry" />
        </mxCell>
        <mxCell id="ubcimJoNjPYLT8qePHkx-6" value="" style="group;strokeWidth=2;strokeColor=none;" vertex="1" connectable="0" parent="ubcimJoNjPYLT8qePHkx-1">
          <mxGeometry x="409" y="410" width="132" height="101" as="geometry" />
        </mxCell>
        <mxCell id="ubcimJoNjPYLT8qePHkx-7" value="" style="endArrow=none;dashed=1;html=1;dashPattern=1 3;strokeWidth=2;rounded=0;" edge="1" parent="ubcimJoNjPYLT8qePHkx-6">
          <mxGeometry width="50" height="50" relative="1" as="geometry">
            <mxPoint x="132" as="sourcePoint" />
            <mxPoint x="2" as="targetPoint" />
          </mxGeometry>
        </mxCell>
        <mxCell id="ubcimJoNjPYLT8qePHkx-8" value="" style="endArrow=none;dashed=1;html=1;dashPattern=1 3;strokeWidth=2;rounded=0;" edge="1" parent="ubcimJoNjPYLT8qePHkx-6">
          <mxGeometry width="50" height="50" relative="1" as="geometry">
            <mxPoint x="131" y="20" as="sourcePoint" />
            <mxPoint x="1" y="20" as="targetPoint" />
          </mxGeometry>
        </mxCell>
        <mxCell id="ubcimJoNjPYLT8qePHkx-9" value="" style="endArrow=none;dashed=1;html=1;dashPattern=1 3;strokeWidth=2;rounded=0;" edge="1" parent="ubcimJoNjPYLT8qePHkx-6">
          <mxGeometry width="50" height="50" relative="1" as="geometry">
            <mxPoint x="130" y="41" as="sourcePoint" />
            <mxPoint y="41" as="targetPoint" />
          </mxGeometry>
        </mxCell>
        <mxCell id="ubcimJoNjPYLT8qePHkx-10" value="" style="endArrow=none;dashed=1;html=1;dashPattern=1 3;strokeWidth=2;rounded=0;" edge="1" parent="ubcimJoNjPYLT8qePHkx-6">
          <mxGeometry width="50" height="50" relative="1" as="geometry">
            <mxPoint x="131" y="60" as="sourcePoint" />
            <mxPoint x="1" y="60" as="targetPoint" />
          </mxGeometry>
        </mxCell>
        <mxCell id="ubcimJoNjPYLT8qePHkx-11" value="" style="endArrow=none;dashed=1;html=1;dashPattern=1 3;strokeWidth=2;rounded=0;" edge="1" parent="ubcimJoNjPYLT8qePHkx-6">
          <mxGeometry width="50" height="50" relative="1" as="geometry">
            <mxPoint x="132" y="80" as="sourcePoint" />
            <mxPoint x="2" y="80" as="targetPoint" />
          </mxGeometry>
        </mxCell>
        <mxCell id="ubcimJoNjPYLT8qePHkx-12" value="" style="endArrow=none;dashed=1;html=1;dashPattern=1 3;strokeWidth=2;rounded=0;" edge="1" parent="ubcimJoNjPYLT8qePHkx-6">
          <mxGeometry width="50" height="50" relative="1" as="geometry">
            <mxPoint x="131" y="101" as="sourcePoint" />
            <mxPoint x="1" y="101" as="targetPoint" />
          </mxGeometry>
        </mxCell>
      </root>
    </mxGraphModel>
  </diagram>
  <diagram name="chapter-number" id="SbqVoeSPhP4GQpeYZnfM">
    <mxGraphModel dx="1242" dy="878" grid="1" gridSize="10" guides="1" tooltips="1" connect="1" arrows="1" fold="1" page="1" pageScale="1" pageWidth="827" pageHeight="1169" math="0" shadow="0">
      <root>
        <mxCell id="DbaBMKnX5aQGzQQXpNfo-0" />
        <mxCell id="DbaBMKnX5aQGzQQXpNfo-1" parent="DbaBMKnX5aQGzQQXpNfo-0" />
        <mxCell id="DbaBMKnX5aQGzQQXpNfo-2" value="" style="rounded=0;whiteSpace=wrap;html=1;fontFamily=Roboto;fontSource=https%3A%2F%2Ffonts.googleapis.com%2Fcss%3Ffamily%3DRoboto;fontSize=26;strokeColor=#10739e;fillColor=#b1ddf0;" vertex="1" parent="DbaBMKnX5aQGzQQXpNfo-1">
          <mxGeometry x="320" y="350" width="320" height="300" as="geometry" />
        </mxCell>
        <mxCell id="DbaBMKnX5aQGzQQXpNfo-3" value="" style="rounded=0;whiteSpace=wrap;html=1;fontFamily=Roboto;fontSource=https%3A%2F%2Ffonts.googleapis.com%2Fcss%3Ffamily%3DRoboto;fontSize=26;fontColor=#FF3333;strokeColor=#E6E6E6;fillColor=default;" vertex="1" parent="DbaBMKnX5aQGzQQXpNfo-1">
          <mxGeometry x="360" y="375" width="230" height="255" as="geometry" />
        </mxCell>
        <mxCell id="DbaBMKnX5aQGzQQXpNfo-4" value="&lt;font size=&quot;1&quot;&gt;&lt;b style=&quot;&quot;&gt;&lt;font style=&quot;font-size: 34px;&quot; face=&quot;Verdana&quot;&gt;Chapter Number&lt;/font&gt;&lt;br&gt;&lt;/b&gt;&lt;/font&gt;" style="text;html=1;strokeColor=#ae4132;fillColor=#EA6B66;align=center;verticalAlign=middle;whiteSpace=wrap;rounded=0;fontFamily=Roboto;fontSource=https%3A%2F%2Ffonts.googleapis.com%2Fcss%3Ffamily%3DRoboto;fontSize=16;fontColor=#FCFCFC;" vertex="1" parent="DbaBMKnX5aQGzQQXpNfo-1">
          <mxGeometry x="319" y="270" width="321" height="80" as="geometry" />
        </mxCell>
        <mxCell id="DbaBMKnX5aQGzQQXpNfo-5" value="&lt;div&gt;&lt;font style=&quot;font-size: 25px;&quot;&gt;chapter 3&lt;/font&gt;&lt;/div&gt;" style="text;html=1;strokeColor=none;fillColor=none;align=center;verticalAlign=top;whiteSpace=wrap;rounded=0;fontFamily=Roboto;fontSource=https%3A%2F%2Ffonts.googleapis.com%2Fcss%3Ffamily%3DRoboto;fontSize=24;fontColor=#1A1A1A;horizontal=1;fontStyle=1" vertex="1" parent="DbaBMKnX5aQGzQQXpNfo-1">
          <mxGeometry x="319" y="585" width="203.88" height="40" as="geometry" />
        </mxCell>
        <mxCell id="DbaBMKnX5aQGzQQXpNfo-6" value="" style="group;strokeWidth=2;strokeColor=none;" vertex="1" connectable="0" parent="DbaBMKnX5aQGzQQXpNfo-1">
          <mxGeometry x="409" y="410" width="132" height="101" as="geometry" />
        </mxCell>
        <mxCell id="DbaBMKnX5aQGzQQXpNfo-7" value="" style="endArrow=none;dashed=1;html=1;dashPattern=1 3;strokeWidth=2;rounded=0;" edge="1" parent="DbaBMKnX5aQGzQQXpNfo-6">
          <mxGeometry width="50" height="50" relative="1" as="geometry">
            <mxPoint x="132" as="sourcePoint" />
            <mxPoint x="2" as="targetPoint" />
          </mxGeometry>
        </mxCell>
        <mxCell id="DbaBMKnX5aQGzQQXpNfo-8" value="" style="endArrow=none;dashed=1;html=1;dashPattern=1 3;strokeWidth=2;rounded=0;" edge="1" parent="DbaBMKnX5aQGzQQXpNfo-6">
          <mxGeometry width="50" height="50" relative="1" as="geometry">
            <mxPoint x="131" y="20" as="sourcePoint" />
            <mxPoint x="1" y="20" as="targetPoint" />
          </mxGeometry>
        </mxCell>
        <mxCell id="DbaBMKnX5aQGzQQXpNfo-9" value="" style="endArrow=none;dashed=1;html=1;dashPattern=1 3;strokeWidth=2;rounded=0;" edge="1" parent="DbaBMKnX5aQGzQQXpNfo-6">
          <mxGeometry width="50" height="50" relative="1" as="geometry">
            <mxPoint x="130" y="41" as="sourcePoint" />
            <mxPoint y="41" as="targetPoint" />
          </mxGeometry>
        </mxCell>
        <mxCell id="DbaBMKnX5aQGzQQXpNfo-10" value="" style="endArrow=none;dashed=1;html=1;dashPattern=1 3;strokeWidth=2;rounded=0;" edge="1" parent="DbaBMKnX5aQGzQQXpNfo-6">
          <mxGeometry width="50" height="50" relative="1" as="geometry">
            <mxPoint x="131" y="60" as="sourcePoint" />
            <mxPoint x="1" y="60" as="targetPoint" />
          </mxGeometry>
        </mxCell>
        <mxCell id="DbaBMKnX5aQGzQQXpNfo-11" value="" style="endArrow=none;dashed=1;html=1;dashPattern=1 3;strokeWidth=2;rounded=0;" edge="1" parent="DbaBMKnX5aQGzQQXpNfo-6">
          <mxGeometry width="50" height="50" relative="1" as="geometry">
            <mxPoint x="132" y="80" as="sourcePoint" />
            <mxPoint x="2" y="80" as="targetPoint" />
          </mxGeometry>
        </mxCell>
        <mxCell id="DbaBMKnX5aQGzQQXpNfo-12" value="" style="endArrow=none;dashed=1;html=1;dashPattern=1 3;strokeWidth=2;rounded=0;" edge="1" parent="DbaBMKnX5aQGzQQXpNfo-6">
          <mxGeometry width="50" height="50" relative="1" as="geometry">
            <mxPoint x="131" y="101" as="sourcePoint" />
            <mxPoint x="1" y="101" as="targetPoint" />
          </mxGeometry>
        </mxCell>
      </root>
    </mxGraphModel>
  </diagram>
  <diagram name="toc" id="YCc1JE-8qVxpw7PL21RJ">
    <mxGraphModel dx="1242" dy="878" grid="1" gridSize="10" guides="1" tooltips="1" connect="1" arrows="1" fold="1" page="1" pageScale="1" pageWidth="827" pageHeight="1169" math="0" shadow="0">
      <root>
        <mxCell id="DaNI3QatE3Ri0YvFUgvE-0" />
        <mxCell id="DaNI3QatE3Ri0YvFUgvE-1" parent="DaNI3QatE3Ri0YvFUgvE-0" />
        <mxCell id="DaNI3QatE3Ri0YvFUgvE-2" value="" style="rounded=0;whiteSpace=wrap;html=1;fontFamily=Roboto;fontSource=https%3A%2F%2Ffonts.googleapis.com%2Fcss%3Ffamily%3DRoboto;fontSize=26;strokeColor=#10739e;fillColor=#b1ddf0;" parent="DaNI3QatE3Ri0YvFUgvE-1" vertex="1">
          <mxGeometry x="320" y="350" width="320" height="300" as="geometry" />
        </mxCell>
        <mxCell id="DaNI3QatE3Ri0YvFUgvE-3" value="" style="rounded=0;whiteSpace=wrap;html=1;fontFamily=Roboto;fontSource=https%3A%2F%2Ffonts.googleapis.com%2Fcss%3Ffamily%3DRoboto;fontSize=26;fontColor=#FF3333;strokeColor=#E6E6E6;fillColor=default;" parent="DaNI3QatE3Ri0YvFUgvE-1" vertex="1">
          <mxGeometry x="340" y="365" width="80" height="85" as="geometry" />
        </mxCell>
        <mxCell id="DaNI3QatE3Ri0YvFUgvE-4" value="&lt;font style=&quot;&quot;&gt;&lt;b style=&quot;&quot;&gt;&lt;font style=&quot;font-size: 32px;&quot; face=&quot;Verdana&quot;&gt;Table of Contents&lt;/font&gt;&lt;br&gt;&lt;/b&gt;&lt;/font&gt;" style="text;html=1;strokeColor=#ae4132;fillColor=#EA6B66;align=center;verticalAlign=middle;whiteSpace=wrap;rounded=0;fontFamily=Roboto;fontSource=https%3A%2F%2Ffonts.googleapis.com%2Fcss%3Ffamily%3DRoboto;fontSize=16;fontColor=#FCFCFC;" parent="DaNI3QatE3Ri0YvFUgvE-1" vertex="1">
          <mxGeometry x="319" y="270" width="321" height="80" as="geometry" />
        </mxCell>
        <mxCell id="DaNI3QatE3Ri0YvFUgvE-5" value="&lt;div&gt;&lt;font style=&quot;font-size: 25px;&quot;&gt;A&lt;/font&gt;&lt;/div&gt;" style="text;html=1;strokeColor=none;fillColor=none;align=center;verticalAlign=top;whiteSpace=wrap;rounded=0;fontFamily=Roboto;fontSource=https%3A%2F%2Ffonts.googleapis.com%2Fcss%3Ffamily%3DRoboto;fontSize=24;fontColor=#1A1A1A;horizontal=1;fontStyle=1" parent="DaNI3QatE3Ri0YvFUgvE-1" vertex="1">
          <mxGeometry x="340" y="377" width="80" height="40" as="geometry" />
        </mxCell>
        <mxCell id="8wBjcBSK3v-dJA_eRkkB-0" value="" style="rounded=0;whiteSpace=wrap;html=1;fontFamily=Roboto;fontSource=https%3A%2F%2Ffonts.googleapis.com%2Fcss%3Ffamily%3DRoboto;fontSize=26;fontColor=#FF3333;strokeColor=#E6E6E6;fillColor=default;" parent="DaNI3QatE3Ri0YvFUgvE-1" vertex="1">
          <mxGeometry x="340" y="457.5" width="80" height="85" as="geometry" />
        </mxCell>
        <mxCell id="8wBjcBSK3v-dJA_eRkkB-1" value="" style="rounded=0;whiteSpace=wrap;html=1;fontFamily=Roboto;fontSource=https%3A%2F%2Ffonts.googleapis.com%2Fcss%3Ffamily%3DRoboto;fontSize=26;fontColor=#FF3333;strokeColor=#E6E6E6;fillColor=default;" parent="DaNI3QatE3Ri0YvFUgvE-1" vertex="1">
          <mxGeometry x="340" y="550" width="80" height="85" as="geometry" />
        </mxCell>
        <mxCell id="8wBjcBSK3v-dJA_eRkkB-3" value="&lt;div&gt;&lt;font style=&quot;font-size: 25px;&quot;&gt;B&lt;/font&gt;&lt;/div&gt;" style="text;html=1;strokeColor=none;fillColor=none;align=center;verticalAlign=top;whiteSpace=wrap;rounded=0;fontFamily=Roboto;fontSource=https%3A%2F%2Ffonts.googleapis.com%2Fcss%3Ffamily%3DRoboto;fontSize=24;fontColor=#1A1A1A;horizontal=1;fontStyle=1" parent="DaNI3QatE3Ri0YvFUgvE-1" vertex="1">
          <mxGeometry x="340" y="470" width="80" height="40" as="geometry" />
        </mxCell>
        <mxCell id="8wBjcBSK3v-dJA_eRkkB-4" value="&lt;div&gt;&lt;font style=&quot;font-size: 25px;&quot;&gt;C&lt;/font&gt;&lt;/div&gt;" style="text;html=1;strokeColor=none;fillColor=none;align=center;verticalAlign=top;whiteSpace=wrap;rounded=0;fontFamily=Roboto;fontSource=https%3A%2F%2Ffonts.googleapis.com%2Fcss%3Ffamily%3DRoboto;fontSize=24;fontColor=#1A1A1A;horizontal=1;fontStyle=1" parent="DaNI3QatE3Ri0YvFUgvE-1" vertex="1">
          <mxGeometry x="340" y="563" width="80" height="40" as="geometry" />
        </mxCell>
        <mxCell id="8wBjcBSK3v-dJA_eRkkB-5" value="" style="rounded=0;whiteSpace=wrap;html=1;fontFamily=Roboto;fontSource=https%3A%2F%2Ffonts.googleapis.com%2Fcss%3Ffamily%3DRoboto;fontSize=26;fontColor=#FF3333;strokeColor=#E6E6E6;fillColor=default;" parent="DaNI3QatE3Ri0YvFUgvE-1" vertex="1">
          <mxGeometry x="470" y="417" width="140" height="183" as="geometry" />
        </mxCell>
        <mxCell id="8wBjcBSK3v-dJA_eRkkB-6" value="&lt;div&gt;&lt;font&gt;A&lt;/font&gt;&lt;/div&gt;" style="text;html=1;strokeColor=none;fillColor=none;align=center;verticalAlign=top;whiteSpace=wrap;rounded=0;fontFamily=Roboto;fontSource=https%3A%2F%2Ffonts.googleapis.com%2Fcss%3Ffamily%3DRoboto;fontSize=17;fontColor=#808080;horizontal=1;fontStyle=1" parent="DaNI3QatE3Ri0YvFUgvE-1" vertex="1">
          <mxGeometry x="470" y="488" width="80" height="40" as="geometry" />
        </mxCell>
        <mxCell id="8wBjcBSK3v-dJA_eRkkB-7" value="&lt;div&gt;&lt;font&gt;B&lt;/font&gt;&lt;/div&gt;" style="text;html=1;strokeColor=none;fillColor=none;align=center;verticalAlign=top;whiteSpace=wrap;rounded=0;fontFamily=Roboto;fontSource=https%3A%2F%2Ffonts.googleapis.com%2Fcss%3Ffamily%3DRoboto;fontSize=17;fontColor=#808080;horizontal=1;fontStyle=1" parent="DaNI3QatE3Ri0YvFUgvE-1" vertex="1">
          <mxGeometry x="470" y="514" width="80" height="40" as="geometry" />
        </mxCell>
        <mxCell id="8wBjcBSK3v-dJA_eRkkB-8" value="&lt;div&gt;&lt;font&gt;C&lt;/font&gt;&lt;/div&gt;" style="text;html=1;strokeColor=none;fillColor=none;align=center;verticalAlign=top;whiteSpace=wrap;rounded=0;fontFamily=Roboto;fontSource=https%3A%2F%2Ffonts.googleapis.com%2Fcss%3Ffamily%3DRoboto;fontSize=17;fontColor=#808080;horizontal=1;fontStyle=1" parent="DaNI3QatE3Ri0YvFUgvE-1" vertex="1">
          <mxGeometry x="470" y="540" width="80" height="40" as="geometry" />
        </mxCell>
        <mxCell id="DaNI3QatE3Ri0YvFUgvE-12" value="" style="endArrow=none;dashed=1;html=1;dashPattern=1 3;strokeWidth=2;rounded=0;" parent="DaNI3QatE3Ri0YvFUgvE-1" edge="1">
          <mxGeometry width="50" height="50" relative="1" as="geometry">
            <mxPoint x="570" y="510" as="sourcePoint" />
            <mxPoint x="520" y="510" as="targetPoint" />
          </mxGeometry>
        </mxCell>
        <mxCell id="8wBjcBSK3v-dJA_eRkkB-9" value="" style="endArrow=none;dashed=1;html=1;dashPattern=1 3;strokeWidth=2;rounded=0;" parent="DaNI3QatE3Ri0YvFUgvE-1" edge="1">
          <mxGeometry width="50" height="50" relative="1" as="geometry">
            <mxPoint x="570" y="535.8" as="sourcePoint" />
            <mxPoint x="520" y="535.8" as="targetPoint" />
          </mxGeometry>
        </mxCell>
        <mxCell id="8wBjcBSK3v-dJA_eRkkB-10" value="" style="endArrow=none;dashed=1;html=1;dashPattern=1 3;strokeWidth=2;rounded=0;" parent="DaNI3QatE3Ri0YvFUgvE-1" edge="1">
          <mxGeometry width="50" height="50" relative="1" as="geometry">
            <mxPoint x="570" y="559.8" as="sourcePoint" />
            <mxPoint x="520" y="559.8" as="targetPoint" />
          </mxGeometry>
        </mxCell>
        <mxCell id="8wBjcBSK3v-dJA_eRkkB-11" value="&lt;div&gt;&lt;font&gt;Contents&lt;/font&gt;&lt;/div&gt;" style="text;html=1;strokeColor=none;fillColor=none;align=center;verticalAlign=top;whiteSpace=wrap;rounded=0;fontFamily=Roboto;fontSource=https%3A%2F%2Ffonts.googleapis.com%2Fcss%3Ffamily%3DRoboto;fontSize=23;fontColor=#808080;horizontal=1;fontStyle=1" parent="DaNI3QatE3Ri0YvFUgvE-1" vertex="1">
          <mxGeometry x="500" y="430" width="80" height="40" as="geometry" />
        </mxCell>
        <mxCell id="8wBjcBSK3v-dJA_eRkkB-12" value="" style="endArrow=classic;html=1;rounded=0;" parent="DaNI3QatE3Ri0YvFUgvE-1" edge="1">
          <mxGeometry width="50" height="50" relative="1" as="geometry">
            <mxPoint x="420" y="410" as="sourcePoint" />
            <mxPoint x="470" y="430" as="targetPoint" />
          </mxGeometry>
        </mxCell>
        <mxCell id="8wBjcBSK3v-dJA_eRkkB-13" value="" style="endArrow=classic;html=1;rounded=0;entryX=0;entryY=0.75;entryDx=0;entryDy=0;" parent="DaNI3QatE3Ri0YvFUgvE-1" target="8wBjcBSK3v-dJA_eRkkB-8" edge="1">
          <mxGeometry width="50" height="50" relative="1" as="geometry">
            <mxPoint x="420" y="590" as="sourcePoint" />
            <mxPoint x="470" y="610" as="targetPoint" />
          </mxGeometry>
        </mxCell>
        <mxCell id="8wBjcBSK3v-dJA_eRkkB-14" value="" style="endArrow=classic;html=1;rounded=0;entryX=-0.003;entryY=0.459;entryDx=0;entryDy=0;entryPerimeter=0;" parent="DaNI3QatE3Ri0YvFUgvE-1" target="8wBjcBSK3v-dJA_eRkkB-5" edge="1">
          <mxGeometry width="50" height="50" relative="1" as="geometry">
            <mxPoint x="420" y="501.5" as="sourcePoint" />
            <mxPoint x="470" y="478.5" as="targetPoint" />
          </mxGeometry>
        </mxCell>
      </root>
    </mxGraphModel>
  </diagram>
  <diagram name="merge" id="4qrdMXf0a9_Fo-u4Yhwp">
    <mxGraphModel dx="1242" dy="878" grid="1" gridSize="10" guides="1" tooltips="1" connect="1" arrows="1" fold="1" page="1" pageScale="1" pageWidth="827" pageHeight="1169" math="0" shadow="0">
      <root>
        <mxCell id="k-E1UlBx_IzaPjeeh0AM-0" />
        <mxCell id="k-E1UlBx_IzaPjeeh0AM-1" parent="k-E1UlBx_IzaPjeeh0AM-0" />
        <mxCell id="k-E1UlBx_IzaPjeeh0AM-2" value="" style="rounded=0;whiteSpace=wrap;html=1;fontFamily=Roboto;fontSource=https%3A%2F%2Ffonts.googleapis.com%2Fcss%3Ffamily%3DRoboto;fontSize=26;strokeColor=#10739e;fillColor=#b1ddf0;" parent="k-E1UlBx_IzaPjeeh0AM-1" vertex="1">
          <mxGeometry x="320" y="350" width="320" height="300" as="geometry" />
        </mxCell>
        <mxCell id="k-E1UlBx_IzaPjeeh0AM-3" value="" style="rounded=0;whiteSpace=wrap;html=1;fontFamily=Roboto;fontSource=https%3A%2F%2Ffonts.googleapis.com%2Fcss%3Ffamily%3DRoboto;fontSize=26;fontColor=#FF3333;strokeColor=#E6E6E6;fillColor=default;" parent="k-E1UlBx_IzaPjeeh0AM-1" vertex="1">
          <mxGeometry x="340" y="365" width="80" height="85" as="geometry" />
        </mxCell>
        <mxCell id="k-E1UlBx_IzaPjeeh0AM-4" value="&lt;font style=&quot;&quot;&gt;&lt;b style=&quot;&quot;&gt;&lt;font style=&quot;font-size: 34px;&quot; face=&quot;Verdana&quot;&gt;Merge&lt;/font&gt;&lt;br&gt;&lt;/b&gt;&lt;/font&gt;" style="text;html=1;strokeColor=#ae4132;fillColor=#EA6B66;align=center;verticalAlign=middle;whiteSpace=wrap;rounded=0;fontFamily=Roboto;fontSource=https%3A%2F%2Ffonts.googleapis.com%2Fcss%3Ffamily%3DRoboto;fontSize=16;fontColor=#FCFCFC;" parent="k-E1UlBx_IzaPjeeh0AM-1" vertex="1">
          <mxGeometry x="319" y="270" width="321" height="80" as="geometry" />
        </mxCell>
        <mxCell id="k-E1UlBx_IzaPjeeh0AM-6" value="" style="rounded=0;whiteSpace=wrap;html=1;fontFamily=Roboto;fontSource=https%3A%2F%2Ffonts.googleapis.com%2Fcss%3Ffamily%3DRoboto;fontSize=26;fontColor=#FF3333;strokeColor=#E6E6E6;fillColor=default;" parent="k-E1UlBx_IzaPjeeh0AM-1" vertex="1">
          <mxGeometry x="340" y="457.5" width="80" height="85" as="geometry" />
        </mxCell>
        <mxCell id="k-E1UlBx_IzaPjeeh0AM-7" value="" style="rounded=0;whiteSpace=wrap;html=1;fontFamily=Roboto;fontSource=https%3A%2F%2Ffonts.googleapis.com%2Fcss%3Ffamily%3DRoboto;fontSize=26;fontColor=#FF3333;strokeColor=#E6E6E6;fillColor=default;" parent="k-E1UlBx_IzaPjeeh0AM-1" vertex="1">
          <mxGeometry x="340" y="550" width="80" height="85" as="geometry" />
        </mxCell>
        <mxCell id="k-E1UlBx_IzaPjeeh0AM-18" value="" style="endArrow=classic;html=1;rounded=0;" parent="k-E1UlBx_IzaPjeeh0AM-1" edge="1">
          <mxGeometry width="50" height="50" relative="1" as="geometry">
            <mxPoint x="420" y="410" as="sourcePoint" />
            <mxPoint x="470" y="430" as="targetPoint" />
          </mxGeometry>
        </mxCell>
        <mxCell id="k-E1UlBx_IzaPjeeh0AM-19" value="" style="endArrow=classic;html=1;rounded=0;entryX=0;entryY=0.75;entryDx=0;entryDy=0;" parent="k-E1UlBx_IzaPjeeh0AM-1" edge="1">
          <mxGeometry width="50" height="50" relative="1" as="geometry">
            <mxPoint x="420" y="590" as="sourcePoint" />
            <mxPoint x="470" y="570" as="targetPoint" />
          </mxGeometry>
        </mxCell>
        <mxCell id="k-E1UlBx_IzaPjeeh0AM-20" value="" style="endArrow=classic;html=1;rounded=0;entryX=-0.003;entryY=0.459;entryDx=0;entryDy=0;entryPerimeter=0;" parent="k-E1UlBx_IzaPjeeh0AM-1" edge="1">
          <mxGeometry width="50" height="50" relative="1" as="geometry">
            <mxPoint x="420" y="501.5" as="sourcePoint" />
            <mxPoint x="469.5799999999999" y="500.99700000000007" as="targetPoint" />
          </mxGeometry>
        </mxCell>
        <mxCell id="8HFFw8w4xRM7bEk1yjPQ-2" value="" style="rounded=0;whiteSpace=wrap;html=1;fontFamily=Roboto;fontSource=https%3A%2F%2Ffonts.googleapis.com%2Fcss%3Ffamily%3DRoboto;fontSize=26;fontColor=#FF3333;strokeColor=#808080;fillColor=default;" parent="k-E1UlBx_IzaPjeeh0AM-1" vertex="1">
          <mxGeometry x="531" y="432.5" width="80" height="85" as="geometry" />
        </mxCell>
        <mxCell id="8HFFw8w4xRM7bEk1yjPQ-1" value="" style="rounded=0;whiteSpace=wrap;html=1;fontFamily=Roboto;fontSource=https%3A%2F%2Ffonts.googleapis.com%2Fcss%3Ffamily%3DRoboto;fontSize=26;fontColor=#FF3333;strokeColor=#808080;fillColor=default;" parent="k-E1UlBx_IzaPjeeh0AM-1" vertex="1">
          <mxGeometry x="519" y="455" width="80" height="85" as="geometry" />
        </mxCell>
        <mxCell id="8HFFw8w4xRM7bEk1yjPQ-0" value="" style="rounded=0;whiteSpace=wrap;html=1;fontFamily=Roboto;fontSource=https%3A%2F%2Ffonts.googleapis.com%2Fcss%3Ffamily%3DRoboto;fontSize=26;fontColor=#FF3333;strokeColor=#808080;fillColor=default;" parent="k-E1UlBx_IzaPjeeh0AM-1" vertex="1">
          <mxGeometry x="507" y="475" width="80" height="85" as="geometry" />
        </mxCell>
      </root>
    </mxGraphModel>
  </diagram>
  <diagram name="evenify" id="5sPIw3p7Cr85jy7uGugE">
    <mxGraphModel dx="1242" dy="878" grid="1" gridSize="10" guides="1" tooltips="1" connect="1" arrows="1" fold="1" page="1" pageScale="1" pageWidth="827" pageHeight="1169" math="0" shadow="0">
      <root>
        <mxCell id="RwNWMJg-IEq_H9INN0Gk-0" />
        <mxCell id="RwNWMJg-IEq_H9INN0Gk-1" parent="RwNWMJg-IEq_H9INN0Gk-0" />
        <mxCell id="RwNWMJg-IEq_H9INN0Gk-2" value="" style="rounded=0;whiteSpace=wrap;html=1;fontFamily=Roboto;fontSource=https%3A%2F%2Ffonts.googleapis.com%2Fcss%3Ffamily%3DRoboto;fontSize=26;strokeColor=#10739e;fillColor=#b1ddf0;" parent="RwNWMJg-IEq_H9INN0Gk-1" vertex="1">
          <mxGeometry x="320" y="350" width="320" height="300" as="geometry" />
        </mxCell>
        <mxCell id="RwNWMJg-IEq_H9INN0Gk-4" value="&lt;font size=&quot;1&quot;&gt;&lt;b style=&quot;&quot;&gt;&lt;font style=&quot;font-size: 34px;&quot; face=&quot;Verdana&quot;&gt;Evenify&lt;/font&gt;&lt;br&gt;&lt;/b&gt;&lt;/font&gt;" style="text;html=1;strokeColor=#ae4132;fillColor=#EA6B66;align=center;verticalAlign=middle;whiteSpace=wrap;rounded=0;fontFamily=Roboto;fontSource=https%3A%2F%2Ffonts.googleapis.com%2Fcss%3Ffamily%3DRoboto;fontSize=16;fontColor=#FCFCFC;" parent="RwNWMJg-IEq_H9INN0Gk-1" vertex="1">
          <mxGeometry x="319" y="270" width="321" height="80" as="geometry" />
        </mxCell>
        <mxCell id="lDh7ggxpIKAA6OwRcN80-0" value="" style="rounded=0;whiteSpace=wrap;html=1;fontFamily=Roboto;fontSource=https%3A%2F%2Ffonts.googleapis.com%2Fcss%3Ffamily%3DRoboto;fontSize=26;fontColor=#FF3333;strokeColor=#000066;fillColor=default;strokeWidth=2;" parent="RwNWMJg-IEq_H9INN0Gk-1" vertex="1">
          <mxGeometry x="340" y="365" width="70" height="85" as="geometry" />
        </mxCell>
        <mxCell id="lDh7ggxpIKAA6OwRcN80-6" value="" style="rounded=0;whiteSpace=wrap;html=1;fontFamily=Roboto;fontSource=https%3A%2F%2Ffonts.googleapis.com%2Fcss%3Ffamily%3DRoboto;fontSize=26;fontColor=#FF3333;strokeColor=#000066;fillColor=default;strokeWidth=2;" parent="RwNWMJg-IEq_H9INN0Gk-1" vertex="1">
          <mxGeometry x="410" y="365" width="70" height="85" as="geometry" />
        </mxCell>
        <mxCell id="lDh7ggxpIKAA6OwRcN80-7" value="" style="rounded=0;whiteSpace=wrap;html=1;fontFamily=Roboto;fontSource=https%3A%2F%2Ffonts.googleapis.com%2Fcss%3Ffamily%3DRoboto;fontSize=26;fontColor=#FF3333;strokeColor=#000066;fillColor=default;strokeWidth=2;" parent="RwNWMJg-IEq_H9INN0Gk-1" vertex="1">
          <mxGeometry x="414" y="480" width="70" height="85" as="geometry" />
        </mxCell>
        <mxCell id="lDh7ggxpIKAA6OwRcN80-8" value="" style="rounded=0;whiteSpace=wrap;html=1;fontFamily=Roboto;fontSource=https%3A%2F%2Ffonts.googleapis.com%2Fcss%3Ffamily%3DRoboto;fontSize=26;fontColor=#FF3333;strokeColor=#000066;fillColor=default;strokeWidth=2;" parent="RwNWMJg-IEq_H9INN0Gk-1" vertex="1">
          <mxGeometry x="344" y="480" width="70" height="85" as="geometry" />
        </mxCell>
        <mxCell id="lDh7ggxpIKAA6OwRcN80-9" value="" style="rounded=0;whiteSpace=wrap;html=1;fontFamily=Roboto;fontSource=https%3A%2F%2Ffonts.googleapis.com%2Fcss%3Ffamily%3DRoboto;fontSize=26;fontColor=#FF3333;strokeColor=#000066;fillColor=default;strokeWidth=2;" parent="RwNWMJg-IEq_H9INN0Gk-1" vertex="1">
          <mxGeometry x="484" y="480" width="70" height="85" as="geometry" />
        </mxCell>
        <mxCell id="lDh7ggxpIKAA6OwRcN80-10" value="" style="rounded=0;whiteSpace=wrap;html=1;fontFamily=Roboto;fontSource=https%3A%2F%2Ffonts.googleapis.com%2Fcss%3Ffamily%3DRoboto;fontSize=26;strokeColor=#000066;fillColor=#ffe6cc;strokeWidth=2;" parent="RwNWMJg-IEq_H9INN0Gk-1" vertex="1">
          <mxGeometry x="554" y="480" width="70" height="85" as="geometry" />
        </mxCell>
        <mxCell id="RwNWMJg-IEq_H9INN0Gk-5" value="deliberately &#xa;left blank" style="text;html=1;strokeColor=none;fillColor=none;align=center;verticalAlign=top;whiteSpace=wrap;rounded=0;horizontal=1;rotation=-45;" parent="RwNWMJg-IEq_H9INN0Gk-1" vertex="1">
          <mxGeometry x="549.99" y="501.87" width="80.65" height="43.61" as="geometry" />
        </mxCell>
      </root>
    </mxGraphModel>
  </diagram>
  <diagram name="multi-language" id="YXZyRLN71ej99ss1Cxfm">
    <mxGraphModel dx="690" dy="488" grid="1" gridSize="10" guides="1" tooltips="1" connect="1" arrows="1" fold="1" page="1" pageScale="1" pageWidth="827" pageHeight="1169" math="0" shadow="0">
      <root>
        <mxCell id="LIKa9jJRxGTa5_CBWg6E-0" />
        <mxCell id="LIKa9jJRxGTa5_CBWg6E-1" parent="LIKa9jJRxGTa5_CBWg6E-0" />
        <mxCell id="LIKa9jJRxGTa5_CBWg6E-2" value="" style="rounded=0;whiteSpace=wrap;html=1;fontFamily=Roboto;fontSource=https%3A%2F%2Ffonts.googleapis.com%2Fcss%3Ffamily%3DRoboto;fontSize=26;strokeColor=#10739e;fillColor=#b1ddf0;" vertex="1" parent="LIKa9jJRxGTa5_CBWg6E-1">
          <mxGeometry x="320" y="350" width="320" height="300" as="geometry" />
        </mxCell>
        <mxCell id="LIKa9jJRxGTa5_CBWg6E-3" value="&lt;font size=&quot;1&quot;&gt;&lt;b style=&quot;&quot;&gt;&lt;font style=&quot;font-size: 34px;&quot; face=&quot;Verdana&quot;&gt;Multi-Language&lt;/font&gt;&lt;br&gt;&lt;/b&gt;&lt;/font&gt;" style="text;html=1;strokeColor=#ae4132;fillColor=#EA6B66;align=center;verticalAlign=middle;whiteSpace=wrap;rounded=0;fontFamily=Roboto;fontSource=https%3A%2F%2Ffonts.googleapis.com%2Fcss%3Ffamily%3DRoboto;fontSize=16;fontColor=#FCFCFC;" vertex="1" parent="LIKa9jJRxGTa5_CBWg6E-1">
          <mxGeometry x="319" y="270" width="321" height="80" as="geometry" />
        </mxCell>
        <mxCell id="SOp-D2EgLcfFXW1r-LXF-0" value="" style="rounded=0;whiteSpace=wrap;html=1;fontFamily=Roboto;fontSource=https%3A%2F%2Ffonts.googleapis.com%2Fcss%3Ffamily%3DRoboto;fontSize=26;fontColor=#FF3333;strokeColor=#004C99;fillColor=default;strokeWidth=2;" vertex="1" parent="LIKa9jJRxGTa5_CBWg6E-1">
          <mxGeometry x="414" y="447.5" width="90" height="105" as="geometry" />
        </mxCell>
        <mxCell id="SOp-D2EgLcfFXW1r-LXF-1" value="" style="rounded=0;whiteSpace=wrap;html=1;fontFamily=Roboto;fontSource=https%3A%2F%2Ffonts.googleapis.com%2Fcss%3Ffamily%3DRoboto;fontSize=26;fontColor=#FF3333;strokeColor=#004C99;fillColor=default;strokeWidth=2;" vertex="1" parent="LIKa9jJRxGTa5_CBWg6E-1">
          <mxGeometry x="426" y="436" width="90" height="105" as="geometry" />
        </mxCell>
        <mxCell id="SOp-D2EgLcfFXW1r-LXF-2" value="" style="rounded=0;whiteSpace=wrap;html=1;fontFamily=Roboto;fontSource=https%3A%2F%2Ffonts.googleapis.com%2Fcss%3Ffamily%3DRoboto;fontSize=26;fontColor=#FF3333;strokeColor=#004C99;fillColor=default;strokeWidth=2;" vertex="1" parent="LIKa9jJRxGTa5_CBWg6E-1">
          <mxGeometry x="438" y="425" width="90" height="105" as="geometry" />
        </mxCell>
        <mxCell id="SOp-D2EgLcfFXW1r-LXF-4" value="" style="shape=callout;whiteSpace=wrap;html=1;perimeter=calloutPerimeter;position2=1;" vertex="1" parent="LIKa9jJRxGTa5_CBWg6E-1">
          <mxGeometry x="338" y="366" width="76" height="70" as="geometry" />
        </mxCell>
        <mxCell id="owHjsVbDjxncidIl55Re-0" value="&lt;div&gt;&lt;font style=&quot;font-size: 25px;&quot;&gt;DE&lt;/font&gt;&lt;/div&gt;" style="text;html=1;strokeColor=none;fillColor=none;align=center;verticalAlign=top;whiteSpace=wrap;rounded=0;fontFamily=Roboto;fontSource=https%3A%2F%2Ffonts.googleapis.com%2Fcss%3Ffamily%3DRoboto;fontSize=24;fontColor=#0066CC;horizontal=1;fontStyle=1" vertex="1" parent="LIKa9jJRxGTa5_CBWg6E-1">
          <mxGeometry x="344" y="366" width="60" height="40" as="geometry" />
        </mxCell>
        <mxCell id="SOp-D2EgLcfFXW1r-LXF-5" value="" style="shape=callout;whiteSpace=wrap;html=1;perimeter=calloutPerimeter;position2=0;" vertex="1" parent="LIKa9jJRxGTa5_CBWg6E-1">
          <mxGeometry x="550" y="366" width="76" height="64" as="geometry" />
        </mxCell>
        <mxCell id="SOp-D2EgLcfFXW1r-LXF-6" value="&lt;div&gt;&lt;font style=&quot;font-size: 25px;&quot;&gt;EN&lt;/font&gt;&lt;/div&gt;" style="text;html=1;strokeColor=none;fillColor=none;align=center;verticalAlign=top;whiteSpace=wrap;rounded=0;fontFamily=Roboto;fontSource=https%3A%2F%2Ffonts.googleapis.com%2Fcss%3Ffamily%3DRoboto;fontSize=24;fontColor=#0066CC;horizontal=1;fontStyle=1" vertex="1" parent="LIKa9jJRxGTa5_CBWg6E-1">
          <mxGeometry x="558" y="362" width="60" height="40" as="geometry" />
        </mxCell>
        <mxCell id="SOp-D2EgLcfFXW1r-LXF-8" value="" style="shape=callout;whiteSpace=wrap;html=1;perimeter=calloutPerimeter;position2=0;" vertex="1" parent="LIKa9jJRxGTa5_CBWg6E-1">
          <mxGeometry x="550" y="460" width="76" height="70" as="geometry" />
        </mxCell>
        <mxCell id="SOp-D2EgLcfFXW1r-LXF-9" value="&lt;div&gt;&lt;font style=&quot;font-size: 25px;&quot;&gt;FR&lt;/font&gt;&lt;/div&gt;" style="text;html=1;strokeColor=none;fillColor=none;align=center;verticalAlign=top;whiteSpace=wrap;rounded=0;fontFamily=Roboto;fontSource=https%3A%2F%2Ffonts.googleapis.com%2Fcss%3Ffamily%3DRoboto;fontSize=24;fontColor=#0066CC;horizontal=1;fontStyle=1" vertex="1" parent="LIKa9jJRxGTa5_CBWg6E-1">
          <mxGeometry x="558" y="460" width="60" height="40" as="geometry" />
        </mxCell>
        <mxCell id="SOp-D2EgLcfFXW1r-LXF-10" value="" style="shape=callout;whiteSpace=wrap;html=1;perimeter=calloutPerimeter;position2=1;base=14;" vertex="1" parent="LIKa9jJRxGTa5_CBWg6E-1">
          <mxGeometry x="328" y="457.5" width="76" height="70" as="geometry" />
        </mxCell>
        <mxCell id="SOp-D2EgLcfFXW1r-LXF-11" value="&lt;div&gt;&lt;font style=&quot;font-size: 25px;&quot;&gt;ES&lt;/font&gt;&lt;/div&gt;" style="text;html=1;strokeColor=none;fillColor=none;align=center;verticalAlign=top;whiteSpace=wrap;rounded=0;fontFamily=Roboto;fontSource=https%3A%2F%2Ffonts.googleapis.com%2Fcss%3Ffamily%3DRoboto;fontSize=24;fontColor=#0066CC;horizontal=1;fontStyle=1" vertex="1" parent="LIKa9jJRxGTa5_CBWg6E-1">
          <mxGeometry x="336" y="457.5" width="60" height="40" as="geometry" />
        </mxCell>
        <mxCell id="SOp-D2EgLcfFXW1r-LXF-12" value="" style="shape=callout;whiteSpace=wrap;html=1;perimeter=calloutPerimeter;rotation=-180;" vertex="1" parent="LIKa9jJRxGTa5_CBWg6E-1">
          <mxGeometry x="414" y="560" width="76" height="70" as="geometry" />
        </mxCell>
        <mxCell id="SOp-D2EgLcfFXW1r-LXF-13" value="&lt;div&gt;&lt;font style=&quot;font-size: 25px;&quot;&gt;...&lt;/font&gt;&lt;/div&gt;" style="text;html=1;strokeColor=none;fillColor=none;align=center;verticalAlign=top;whiteSpace=wrap;rounded=0;fontFamily=Roboto;fontSource=https%3A%2F%2Ffonts.googleapis.com%2Fcss%3Ffamily%3DRoboto;fontSize=24;fontColor=#0066CC;horizontal=1;fontStyle=1" vertex="1" parent="LIKa9jJRxGTa5_CBWg6E-1">
          <mxGeometry x="422" y="586" width="60" height="40" as="geometry" />
        </mxCell>
      </root>
    </mxGraphModel>
  </diagram>
  <diagram name="privacy" id="-ToWwvJ8j7Z0LCP9O1BG">
    <mxGraphModel dx="994" dy="702" grid="1" gridSize="10" guides="1" tooltips="1" connect="1" arrows="1" fold="1" page="1" pageScale="1" pageWidth="827" pageHeight="1169" math="0" shadow="0">
      <root>
        <mxCell id="h_ehJebtYFJRKIZe6u9G-0" />
        <mxCell id="h_ehJebtYFJRKIZe6u9G-1" parent="h_ehJebtYFJRKIZe6u9G-0" />
        <mxCell id="h_ehJebtYFJRKIZe6u9G-2" value="" style="rounded=0;whiteSpace=wrap;html=1;fontFamily=Roboto;fontSource=https%3A%2F%2Ffonts.googleapis.com%2Fcss%3Ffamily%3DRoboto;fontSize=26;strokeColor=#10739e;fillColor=#b1ddf0;" vertex="1" parent="h_ehJebtYFJRKIZe6u9G-1">
          <mxGeometry x="320" y="350" width="320" height="300" as="geometry" />
        </mxCell>
        <mxCell id="h_ehJebtYFJRKIZe6u9G-3" value="&lt;font size=&quot;1&quot;&gt;&lt;b style=&quot;&quot;&gt;&lt;font style=&quot;font-size: 34px;&quot; face=&quot;Verdana&quot;&gt;Privacy&lt;/font&gt;&lt;br&gt;&lt;/b&gt;&lt;/font&gt;" style="text;html=1;strokeColor=#ae4132;fillColor=#9AC7BF;align=center;verticalAlign=middle;whiteSpace=wrap;rounded=0;fontFamily=Roboto;fontSource=https%3A%2F%2Ffonts.googleapis.com%2Fcss%3Ffamily%3DRoboto;fontSize=16;fontColor=#FCFCFC;" vertex="1" parent="h_ehJebtYFJRKIZe6u9G-1">
          <mxGeometry x="319" y="270" width="321" height="80" as="geometry" />
        </mxCell>
        <mxCell id="6KOxY0V8pbd58MMa59_W-0" value="" style="sketch=0;outlineConnect=0;fontColor=#FF6666;gradientColor=none;fillColor=#004C99;strokeColor=none;dashed=0;verticalLabelPosition=bottom;verticalAlign=top;align=center;html=1;fontSize=12;fontStyle=0;aspect=fixed;pointerEvents=1;shape=mxgraph.aws4.shield2;" vertex="1" parent="h_ehJebtYFJRKIZe6u9G-1">
          <mxGeometry x="369.5" y="364.5" width="220" height="220" as="geometry" />
        </mxCell>
        <mxCell id="YdT44--VvG6hjd5chULH-0" value="&lt;div&gt;&lt;font&gt;No data collection&lt;/font&gt;&lt;/div&gt;" style="text;html=1;strokeColor=none;fillColor=none;align=center;verticalAlign=top;whiteSpace=wrap;rounded=0;fontFamily=Roboto;fontSource=https%3A%2F%2Ffonts.googleapis.com%2Fcss%3Ffamily%3DRoboto;fontSize=29;fontColor=#FF6666;horizontal=1;fontStyle=1" vertex="1" parent="h_ehJebtYFJRKIZe6u9G-1">
          <mxGeometry x="325" y="580" width="310" height="40" as="geometry" />
        </mxCell>
      </root>
    </mxGraphModel>
  </diagram>
  <diagram name="mascot" id="pXwmnx2Rk3bU6XfKd-Cx">
    <mxGraphModel dx="1242" dy="878" grid="1" gridSize="10" guides="1" tooltips="1" connect="1" arrows="1" fold="1" page="1" pageScale="1" pageWidth="827" pageHeight="1169" math="0" shadow="0">
      <root>
        <mxCell id="G7cTknpJEeHirmAoxann-0" />
        <mxCell id="G7cTknpJEeHirmAoxann-1" parent="G7cTknpJEeHirmAoxann-0" />
        <mxCell id="G7cTknpJEeHirmAoxann-2" value="" style="rounded=0;whiteSpace=wrap;html=1;fontFamily=Roboto;fontSource=https%3A%2F%2Ffonts.googleapis.com%2Fcss%3Ffamily%3DRoboto;fontSize=26;strokeColor=#10739e;fillColor=#b1ddf0;" parent="G7cTknpJEeHirmAoxann-1" vertex="1">
          <mxGeometry x="320" y="350" width="320" height="300" as="geometry" />
        </mxCell>
        <mxCell id="G7cTknpJEeHirmAoxann-3" value="" style="rounded=0;whiteSpace=wrap;html=1;fontFamily=Roboto;fontSource=https%3A%2F%2Ffonts.googleapis.com%2Fcss%3Ffamily%3DRoboto;fontSize=26;fontColor=#FF3333;strokeColor=#E6E6E6;fillColor=default;" parent="G7cTknpJEeHirmAoxann-1" vertex="1">
          <mxGeometry x="360" y="372.5" width="230" height="255" as="geometry" />
        </mxCell>
        <mxCell id="G7cTknpJEeHirmAoxann-4" value="&lt;font size=&quot;1&quot;&gt;&lt;b style=&quot;&quot;&gt;&lt;font style=&quot;font-size: 34px;&quot; face=&quot;Verdana&quot;&gt;Add Personal&lt;/font&gt;&lt;br&gt;&lt;/b&gt;&lt;/font&gt;&lt;div&gt;&lt;font size=&quot;1&quot;&gt;&lt;b style=&quot;&quot;&gt;&lt;font style=&quot;font-size: 34px;&quot; face=&quot;Verdana&quot;&gt;Touch&lt;/font&gt;&lt;/b&gt;&lt;/font&gt;&lt;/div&gt;" style="text;html=1;strokeColor=#ae4132;fillColor=#EA6B66;align=center;verticalAlign=middle;whiteSpace=wrap;rounded=0;fontFamily=Roboto;fontSource=https%3A%2F%2Ffonts.googleapis.com%2Fcss%3Ffamily%3DRoboto;fontSize=16;fontColor=#FCFCFC;" parent="G7cTknpJEeHirmAoxann-1" vertex="1">
          <mxGeometry x="319" y="270" width="321" height="80" as="geometry" />
        </mxCell>
        <mxCell id="Zdyb4fVUdGJkDfghwSOU-0" value="" style="shape=image;verticalLabelPosition=bottom;labelBackgroundColor=default;verticalAlign=top;aspect=fixed;imageAspect=0;image=data:image/png,iVBORw0KGgoAAAANSUhEUgAAAQAAAAEACAYAAABccqhmAAAABGdBTUEAALGPC/xhBQAAACBjSFJNAAB6JgAAgIQAAPoAAACA6AAAdTAAAOpgAAA6mAAAF3CculE8AAAAhGVYSWZNTQAqAAAACAAGAQYAAwAAAAEAAgAAARIAAwAAAAEAAQAAARoABQAAAAEAAABWARsABQAAAAEAAABeASgAAwAAAAEAAgAAh2kABAAAAAEAAABmAAAAAAAAAH8AAAABAAAAfwAAAAEAAqACAAQAAAABAAABAKADAAQAAAABAAABAAAAAAAM3bSGAAAACXBIWXMAABOIAAATiAGjigkoAAADGGlUWHRYTUw6Y29tLmFkb2JlLnhtcAAAAAAAPHg6eG1wbWV0YSB4bWxuczp4PSJhZG9iZTpuczptZXRhLyIgeDp4bXB0az0iWE1QIENvcmUgNi4wLjAiPgogICA8cmRmOlJERiB4bWxuczpyZGY9Imh0dHA6Ly93d3cudzMub3JnLzE5OTkvMDIvMjItcmRmLXN5bnRheC1ucyMiPgogICAgICA8cmRmOkRlc2NyaXB0aW9uIHJkZjphYm91dD0iIgogICAgICAgICAgICB4bWxuczp0aWZmPSJodHRwOi8vbnMuYWRvYmUuY29tL3RpZmYvMS4wLyIKICAgICAgICAgICAgeG1sbnM6ZXhpZj0iaHR0cDovL25zLmFkb2JlLmNvbS9leGlmLzEuMC8iPgogICAgICAgICA8dGlmZjpZUmVzb2x1dGlvbj4xMjc8L3RpZmY6WVJlc29sdXRpb24+CiAgICAgICAgIDx0aWZmOlJlc29sdXRpb25Vbml0PjI8L3RpZmY6UmVzb2x1dGlvblVuaXQ+CiAgICAgICAgIDx0aWZmOlhSZXNvbHV0aW9uPjEyNzwvdGlmZjpYUmVzb2x1dGlvbj4KICAgICAgICAgPHRpZmY6T3JpZW50YXRpb24+MTwvdGlmZjpPcmllbnRhdGlvbj4KICAgICAgICAgPHRpZmY6UGhvdG9tZXRyaWNJbnRlcnByZXRhdGlvbj4yPC90aWZmOlBob3RvbWV0cmljSW50ZXJwcmV0YXRpb24+CiAgICAgICAgIDxleGlmOlBpeGVsWERpbWVuc2lvbj41MTI8L2V4aWY6UGl4ZWxYRGltZW5zaW9uPgogICAgICAgICA8ZXhpZjpDb2xvclNwYWNlPjE8L2V4aWY6Q29sb3JTcGFjZT4KICAgICAgICAgPGV4aWY6UGl4ZWxZRGltZW5zaW9uPjUxMjwvZXhpZjpQaXhlbFlEaW1lbnNpb24+CiAgICAgIDwvcmRmOkRlc2NyaXB0aW9uPgogICA8L3JkZjpSREY+CjwveDp4bXBtZXRhPgojuQdzAABAAElEQVR4AeydBYBdxdn3n73rLtnIRnfjIa5ACERwdynFrYW2b1toy9f3rYQWKS3a0tJCDSiF4iW4JYQgUZKQhLj7bmw363K//2/uneRmszGI7t1JZs+554yfx+eZGbOm0DQCTSPQNAJNI9A0Ak0j0DQCTSPQNAJNI9A0Ak0j0DQCTSPQNAJNI9A0Ak0j0DQCTSPQNAJNI9A0Ak0j0DQCTSPQNAJNI9A0Ak0j0DQCTSPQNAJNI3DEj0DMEd+D6OoA34sYCHc7GL7yjPvIGH7VdGkagV2PQBMB2PXYHMlv4tT4unDcX/2oT3wo3xMcT5Q8IfLv9lfdTeUcoBFoIgAHaGAPULFJKnek4vGKbRT5Xam4QXGu4hTFLxSrFAkeMWtDP7/SX8qIVazZx9xIKRCCpnAYj0ATATiMP069poFQ/1UsUATRlyluVUxUbKvYWrGzIsj+ieK/FD9SJHiVYV8QEtggnyce/B6oeJxiH8UcxXRFiANEqFiRNlHnB4q07VAH2uz7QVu8ysQ9zwleivHX0NMo+esHIUq6e0R3E2TsqrhY0XP4+h1K1YPBihconq64XvFexVcVCagGe8PJQWqP+Pm6v0XxZEWIDZLGwnDcpCtEJV4RieQoxZ7h+7t1fVSRdu8L4VHyrxWAad/+SITfm0IPhOq0N/UesjRNBGDHoWc8iJ5j1gcg3nlO4a87lnBwfgGovi3UyD0BpPXIBjG4VvEHissVb1RcpLgnIuDfZygtxOMsxU8V/6E4XrFUcU/hJCWgfiSWyHbuKd/Xec83oy5PuCirpWJvxU6K7RRzFVMUqxUhXqsVIaizL7744sXPP/+8z0s5lOd/67ZxBjoa7YExgGOAOB559nZMQJavkm9vy6+fzn+v+oRpd+kS9BJufK3ijxX/rghwN0TAPPIP1/tnFCcqkgeOT6B+uD15QQ6ulEXwbYuUMHhGmgMdfLupB0nkfMXTs3v3OiZvQP+czHbtLCkn2+JTUrY3sqrKKrdssdJ16239nDnlqz4Yh2TzgeIrihMUCbSfuK9wQd4jIviPdkQ0dj83siGOAYfopdhVsYMiHAQEAojRcVcrLlH8YuBNN82f+thjcBJCQ2WF3uz/v9QFQCJuP6QIQsKVSxRp2yeKAPBmRYJPP1T3qAL/VPyRom+zbl2ACKJaXKf4iOK3FJ9SJCD6o+dHBpAO+PFjEPmOsgkHGnGoh29D7KB4W1rnjt/sft55OS179bTUFs0tPjklGIiLrbNAgDRKGYyxmJjQPT9rawI1FZWByuJi27RkqS39cLwtfe2Nj/TqYcUXFQmRBCb0pJH8jUYCQJ8Bds+pWun+HMUzM7t3OzZv0MDmWR3aW3KzHAFPqgViQ7BcW1MjjlFspevXWdHceVXL3nx7nvK8o/i8IpySQLkA/TYA4+F+DrSf8jMVQWpmAtIUEXG7KUIYmit+YvHxD1p19WTduzyZw3pnl0xf/FkgMemlmg0bfqrnO4Sk1q1Pqi4r+2dKTs6oksWL50e+TB8ypFnZl7PPqS2rGGF1dYxZmpAJI+AkxZsV/XgeyL6rmm2BsfYi+m1x2Zk/P/a22zJb9u1tSdnZNepwTF1NbSBYWytsV5NolR85dw0/IGFsbFDfORgTiK2rKa+ILV65MmbB2+/Y/Gf+M065blOcphhJbPSzcQSGIpoCH9FzpQ66/0Fy2zbfPOrii5q37NNLHKMFYmIwNi5uR47BCIW5hgAqUFtZGaiQ+Lhp8RJb9O77tuLd995SinsUx5NUIRI4Q0/2718Pyg2WmjdqVIcty5ZdVV285QpxuDfbn3jyL6Xg0nfy9VN8VRzxbiEyxAFdn/by/kFFpIQnFUHykoyuXTcVz5+PHQCJYKXie7GZmdPS2uctSszMrYkLBitWf/wxxNAHyiGCYX6sud+fwY1v67PPzl09ZsxTPa+9+rTu55xlKS1a1NTV1AiLwf9QZ/Xd9qreYFBN1P+YQIzFJiTU1lVXW+GXc2M/feDh2pKFC29XIfeHC6Jvvl97VfbhnGjvRudw7sHety0kxoVEwP+X2Krl7YO/c0tmKzhGVlZtTCBgdULuYE0Ex6BsP0IehPVbnEJiZYhjiGPGbly4KOaLfz9raz6a8GifH/3oxzPvuw+RfH8SAVpB9MC3AwCOHj06oAg3Rv/toIgEkK2ILjxccVVWz6NqU1u2aC4CV5eQkhq/8PU3E7pfdL4lZ2dbXHKSrZk23eKSkiw9r1Vd8YoVgdRWrWz9rNm2fuKk2vyzzoytKS+3iuLiuVuWLltRXViIOlSkuFxxsWKh4iLFNYr1VQU9cmPBlXb7keT3VwluXHN69Wq3cdasd46/61fdOww7rlqIHldbVRWjoJFiqL56CNbV6RsHLDYxqaasqDBuxr+esYXPv/AXlfjtcKn+O3z1Sg6TnF9vpA6TTuxFMxzyZ3Xvnr957tyn+3z7pqFdTjvFUpo3/5ocIxgCFHGM6q1bYxaPGx+Y9Jvfzsrs2vXcLfPngxhfR3fk2wDsIIwXdXXrAsjeXbG3Yl/uE1u37tqi11F52fn5iaktWzoVJiE1FeJWs3HBwrhZzz1vo3492oT8FoiPsxlPP1OX27VLjJAnWCtuN/Opp4MZ7doGUps1k6wTrKssL4+Z+fSzdvT3bonJKsivrdi8OVBWWBRTXlRk6MtxaWkWr/JL162zkjVrbeOixaVFs2auqNlUPFftmaU4XfFzWdeXRVjX9cgRMvoFMSDuS3CI1+b885utevnlCSMfvK97uyGDq2sqK+Ph4A75I0vTs0hq44B9H4gDhEDSAONTO+u5F+K++MvjT6r4qxU93kQWH1nzEXPvO3LENPgrNNQjIU4sr4968P6WbQYOqK6zYFzd/uAYAgHhi2wFsQBL9aop0+Lf//4PVya2bTuycuVKrOf7Igl4pAfhI4ELMR3RHZ3/6KQ2bQa0HjKojRA4Nr1NG0vNzbXE9DTHwQMCWLVFLAzVNxgQEAdi4mKDX774ikl1sZ6XXgz0xhTNm2/LP/7E+l97tUmKsfF332v5xx1rOV27OqL2/s9/aafce4+l5DazLcuWO4u5ygrGJyUFA/HxltG+XTAxOzuIuI3kVFdZGVONlLB5i21du842L1tq6774onTthE8hCJ8pfqSIgXKFog+76q9/X/9KesZlzLA77zir48gR1TUVFRhBt3N9kF4pYmS7CYiLb5MI3POgtB59+VqGJyKPK6DhPxCBQBwgZNWfP/Fk/Jx/PMnU6P9T3JfvSv7DMjAMjTn4jzRAnRx3+t8eS2/eo3uNxNk4oGgnjvF1RiLMbSRiV6+eOi3+ve9+f177M888dvnrr2+iKsVIhI6siXdwNt5HcsR8/R6leGJ8bu6wghNHtm8hy3ZG27YOKWXdtrjEhFpn3ZZa49SXOhVRhwqjsK02cUYRp6CMmB/8YrQNvvnbltO5k21Zvtw+uuseO0lITlnzX3/dcjp2tGY9utukPz5qkgwsq3172zB3njOEJubkWDJTaeL6sSIAYBDIwdX9c0Y01CJZ25EhZF2vLq9w1vWS1Wtsw/z5tuKzSVs2TJ2GwfQdxTcV5yj6wLci1Jd2Qk+3I9wt3a/85h8H3nBdtewx8SFs1xCGx5+2gfiq2ypLS62itMxqq6sgzpaYkmxJSC6JiVan9Eg+DgH2IBUENa6SmoIiNnUT7r0vdtUHY89To/6r6OHLt/GIu7r+H3Gt3rsGO3ExZ/DgdhsnT/7s9L/+pXXzo3rUiNvFod81FLwhKIQ9GprQfwfkDaVv6BlliEtWL3r3vfiPR//6KaW5SrEhQKERRG891611VDxD8czmQwYf137Y0PTc7t0sTfp4Ylp6MBaE34bs4mR1dcJCpd5DO0HU+ORkW/bRBCH+CuvzzW9Y+aZNzGZYi55HyQaQbOLkToIQ17b5r75hvS69yLauWmVJki7SW7e2hLTU0DiAaIq+XtUeCmGqE75AF7ZZ10VB6iAIVaVlgdL1hSIGC2z5hAmVqz/8CMngZcVXFJeFCnJ/YbmRUpBKsyAzESWTJs087/lnWqfn5dUxfYfRjvYggYH4W6SOLJ85yzZN/9zSFs+2nNitFqjcaMHEHNtYl25bO/a0rH79rYNsP5mtWhqzO0gFe2IGjKFsJHWbly4LjLni6sWdTz+9/8I338QW4trmWn0E/qHxjTX4D/PWiPvuPbX9cUOrq0tL4xtCfgDIGX0ERFz9oADMAAfIARcA2PYYQA6VIWNi7YTf3R+74p13T1UeOJ4nAlxd0ZSVlZ+ftXnp0tN0e5mQflT+iOHpLY7qYWktNSORmrrdOMl0FhxeTXCt2APXouxtAQSRGFu2YYNN+9s/7ZgffM9xcfoqyUGdpDmhNNOfetqSxOWz8zsI+ZsZKgbpEJtds/epXnKobMZX+WJi40Jz8nqibxG3df16qQmzbOHb727eNGPmW6rgH4qMlQ+eEDBmEMofDLrtBw92P+/cGhn84iiTMYlNiDfZYOyLdz+w6scesoE9tDCiYx9LTU+32Lh41S06KzWtRt+xtKTYVi2aaZPnayHDd263o0YNl7Ev0RGCPRIB9UNpa7586ZW4qQ88xMzAbxX9d9XtkRdofGMM9AuIvbr7FZf/qNtZZ9ZoWiceUXUbdtPrMLLGSWwMyjNsi3TXNQsW2Srpx4XLV1q59FlYbIJE5PgkiY0iBo5Y7A4JHFCKWyQnBTWtGFg45jWci562gQPjbA1GctcuMA6Ho1tlXPtj75tuuH7At2/s3v2csxNb9uldo3n4oMR2zWPXBJjLFvCq6fwPRe73KYTTQwTmvPiSterbB+OgCYlcmRoIpyZUlWy1Wc8+a3n9+1l6u7ZSN9qFxkj9dnXuc71ki2izJBZnL1CfhLTBlGbNZIjsGmw/7LiUNscN7RVITbly45wvIYZ1A286e/6aqfNDMwojRgRs6VK+530Dv3tz++TMDBGukPQD8peKkLxy74M2dNZzNvKM4ZbXoYvFS+SHrtWKcNWKyNWG+5As4sb77t3aWulL/7bxK4qtg6aAmQHRBw71czeDGyvbQlJWZszc519sn3/NNX/dPH06jlD7+EF2U8FBfnXENnw340Sfgp2/973EhX/4w7Rznv3XUZlt224TF7flCyN/sLrG1syaZTPeetcK5r5jbSXpJsIwlLBMPGdNTbYV9hluHY4fZu179xSgJFpNFbNOuxg6ylXAGFelmYGxP/tlZeHUadggvL57ou5vaXXcsWd2OeP0RKklJoSvRU93CC9OT/7Qn13UQYKvGDD8oetntG3jJBuH2Goz9VeVlNic5180IaRld+kcQn66s/+b4VrvVAndiTBJMoirlSExULx6dWDZhE9s5p8fE4+23/e58sp/znzqKaZVO+UNP2HmiJ//b4qMkEER9BiMkbjzvvB/d9h1eZusY7fuVlFWbghqqcnxlpgQZ/FxIUMgXaioqrGtZdVWXlmt57Ei6sk269O37cM259rI735bczYSOMJSlpLvMkgSrJvyl78G5j3zn5OV6D3FI1YKOECfdpdjdzBe+I9xQc/rrnmx/1VX1tbV1ki2r9dV/dYsgM3672tW/qdH7ZRzu1tui5YWGxsXTgrnChmKNhatt9nvzrVpx55sw66+wnLkKVi9jXuGu+TwPoRI6IvlErcrNm6qld4dO+df//65Uo1VvCv/zNOHC/EdEiakp9cE62pjAWbohmti/Xbu5xFDV6Z9Hvkii4eoydDl1IUYkCFMzCLTHJB71bNNDUtIqFP76krWrInDZjH9kUcXqM4fK8Z0veTil3tccG4wKTMzBrsF7R3/tyds2PwnrefgU6xMBr/m2SmWm5VsCZrqZCj56p6Gca2pDYoIVNraoq0iBDWWpGnR9//4jpX96g7rMfKEnb+r8kQGVA5JdzXLJ3wc9+Ht/3un3vFtNVg72HIisxzW9zS8sYZz2gweZDGy3gZrduTYfMT4pARbNftL2yDkv/LaEZYmti9DtgAHRIxxomNZRY1Ex6C1aNXaWlzdzrrKcv7SFVdbzz88ZG379ZUkEBah4aDSk/XHzZFvldWbqbW4xMRYOKvCjzued+6vu511Brp1Xaym0mR8kg96hfRYvdUfdz0IXwJ7xq4qAwkRhR1xOFjIT59d/0MEWnP6MPBARuu8ul6XXlLX/rjjuix8861X5jz5rzUaNCuXL0Kpxje9TWsr2VxsLV950rpePsrKhfztWmUI+VMkyYcIii47BQrPTk+ytJQEEQHNElTV2tnfH2V/e/0VKxvY3xJTU2TvkF1kdx9Ehtg0+Voo4HZNQD05IoODziOy5Q03Giiqs549EwJbttzR59qrWsQnJyLW7YBhIDgfefrL/7WLutVZm7xccY5Ea5mTZtmZyZYpAMlOT7YsXQnFWyukc9ZYTrNm1r1HK5vwm8ctYchgy8zLc+WgW9dWVlnJypWKqwQ7MSbx3+a/8ZYWmCyxft+6IbH3pRcHBTRwNzh+QCxftik1d3eA5mrfz3/2VJ9nl/u52r0tjrFjTGQrgAoHkrNz6vL69wm2HDwoA/WkTipbhpC/rqrSpkptG966yjIzsywjLcHyctMcwfZ1AQz1I+8gDLEa+8y0RBdzm6XbloWTbE3BMZatBUTYDFw7fEH1rvgY1FVVyw7wwqbRo0f/c9y4cUcsARDbaoRh9uzmuf37tWd+O1gr5I8M4myIwSWbNlvB/E9syIDu1rZ5qmWkJjpcRDpwUekS4mOtTYt069Q2y92Xl1UIYJLswssH26Sf3m6lRRscsBYL6Yu+/NIqN292ksCKTyfapEcetfyRI+zke++2jieOEsjFxIjjO4IbkhZ2bFZkEw/p/WHSLE8IaqoqZQitC8g4GjztwfstMTvTPn3g97YFKaCs1LKyssXxay1HhNvl2QvJhS6SDEnBKwgtM83Wrl0v+4He7qkMvqZgKJCamjR6zBjPRA+Tkds36GlsBMB/hFx5sCU5fZePGcH1+OTMF5fK4t0mS2t9pSs6pxAHDDsOHqIwKkC6iEOndjmOy5SKCOQICM/uFWOTXvqvbdacdonmy7WAyEq0tvyju35jMdIjzvjTH6xg5HCpARKpWZyishzi71hF0689jECIEMiaX1kVk6QVmn2vvMKO//lPbYakgRXvvS//iAzHzVetK5FuL4cfcWe+8b4EwINcNTUS/fcmKD0SYV1padnos8/2mfa12r2p6YCnaWwEwA8YMpwwzv/c+QoRYGrbGZ/0eldJeV4rw1GcAKtD6yynY1bJpbagW3+Lf+EpK5GxT44/tlCrAr98+RU7YfTPbYDca1MErBjUZOQLEaBdVbBz05qeNDACqEvYL/Dea9G7l51x/28t/7JL7ZPnx1m1ZgQh1AtXbLRNJRWOIOwLNjL7t7Uy1rJF2EP5dvOxlEC6m2Z4mJiwtVIBEP+PWDw6YhveAIzwyH/3Qu30UgbA1BcL+bTM56dmpNuizXFWubspvXAlcAjERYgA0gDAhnrQ9+iutnjW3OAXTzxpaZpWO/WB31krGQcdoFK3MwzuBpjC5Tdd9m4E+JZECKtmAuyYm663Td/5qb30+Dgr1xRfgqYFl67abBu3hImAh4bdFM83qpT95os1ida6naZGnf6/mwyAmJgL7s0KM8Mpj1g8OmIbvrtPNHDgwI2Fk6csqZIvuAw2O2p0AiA511haVoYt7HGsrV2zTtO/cU4S2F2Z8suxdRu22rI1W0QIYmRHiLfYyg226pl/x/S57lrrc9klbsspgFMAEiI8uyuw6d1XHgGQFhde8LvvGadYM9kGnvrnx7a5pMySNbuzfO1mKy6tlDrgNK9d1gNRT5S6tmDBQps58AzLbN7Mlcv321Wgbrkgx66eOpUkY8PpmoyAuxqwg/wcmIidOnUq3lmfFq9YKS6slXE7kgABDobAOOs3fJh98PZnVqPP5ySFXTSWd6sLt9qq9SXOsSQQl2hTxr5rE7KH2IUvPWct5FnHlCAzC47r76Kcpsf7bwTc99J3rRb3Lhgy0I569I/216cnivuXCakTbOnqLVZWXh0iAg1U65A/McEKN5bY3/4500aIkOjjOaLSQHL3CONwbHxcnZZAxyx66ZVpo4OjWd1IOGIJgLdghrrROP4i1UAIKgMpKVe1HtAfpNyBpAM8qAFZzXPtfakBLea9bQVdulmN9EtBwU4MYKUMTIWbSi1J3KJG6t7YZz6weadebyfccI0lZGS4ZbYO8XfDORrH0B5mvdB48y2xC2RLBcuU38d/NUXbu0eeJSfG26bicjdrg+q2nQeI+IuLJ8qjc33RFnv07jes1SO/t1adO4U8PHcElR06DBCJodR++cqrgfXTPv/ZuDvGsVUYOAS8HZGhMaoAWGX5Vu+LSn+4cfHigBZw1OL9tkMQRPDk1EvOt/uL+9jkiZMtQa6hiI3MCgAw0I3VhSVWtLnMkgRQlTIGvv7YWNt0y+12/JXfwN1X/vRyMhJANYVDNwKMf5X2IsiTcXCg1IHnnvrUKrXjA5QcyQ0iESeX4Hi5Bido4U+1rL9TJk2xn//tU8v50yNuZaDz7NwN8gM/8j6sWT97Ttysv/59oozH/wj32M8CHLoB+Bo178AZv0Y5h1tWqDIfZljzo4d8NOKXPwuyO46cSELON+HWMgPA9B0+8M89+je7oXiMnXDKefISY2FIrUP8pas3O+SvEECN+dt4S/r1r6zHiGGSFuRRB5UQcDWFw2ME+J6s9Z/z/lizX95hJ18/XPsClFrbVnIUSom1TRs328oVC+3ThXU2//hLbMRpJ1mapMCd3Lrrdcchv5YCb12zNvDazd+tqi4qOlpJpitC+etxlnqZD/OfjVEFYMiFmU40W1a2ahXkf0Rev7414hSxTk8PI61XBVgr32vwAPusrr1N+seTOtFik5Z9ptuaojLnJyCXcSH/h5Zy953WXXYDFgO50IT8oXE4TP5CilHtmhfk21Lp86/8/b+2OrGFvT9pqU2rbWmfpXWx5UedZm0vvsr6Dj3a7YPgFnbtifMnJdeVFRXFfPLAQzHF8+Zdq2pYsowb/RHN/dX+XU5/864xBGACYvCPPt+68Zqel1xUox1jYkObR4p4h5m38wWQGBkvaWCTlgTPmfK5rX/zTetUtsra5be1Ze/NsIRfjdZikeHO2OcyhvPu8yCJS9GgbcH/CJfnLk2EZdvw7OsN3xLX7CqtEnzzR7dbl1NO1s5G7bRHYjPL7drZqQMYALEbuLCLsYbro1po3UaNdliO++SBh61o8pRblOdRRS9hhso4gv82VgnAfxKPpv9dN3VaXkV5+ZBmnTvFJGqjTH1g9stzNABJAKxkaik1O8tatmrhdosJ9B5s7/3tZWt16/es5+mnOH3fFbwLoPGV7nAF4cNIjvEJ70TUDh/Zi0AHV7jfvHNtoQCXL+zLtC/17VD5If5BHxpogv8oB0J9YvyQ8hK09VdWu7Y25Xf3Wf5JJ5qWGlssJwNpgxCmgRtch+HHXGVoIVetygmunjI17u2bbt5Utnr15erKvxQbDfLzaRo7AaCP6GnA4WvabGLTonHjh+vgj0RtRhFkx50wS2AjXHcLZ2D/OgGA9sOba1kd21nfK74RQmIweS+REU5EAKnjZCyM1ZUNOMp1uMgWbWBRtHyFNh1ZbuuWLrWNciUuYbddeZfhiEKe+IRElw8KBaGitG3EwZV8GP5xCBQSrOCejthputUTOIgezyCEDlHDCEfnHFHYy7HdU89d2RozTgaqkOv2Zm1qyg5HtfLRYBt0Bw4MqI+6VXu12WlcMHQmQE2MTgkKzHjqX4FpD//h9aQOHc6r2bLlMyVrFGK/+rEtbCPG2540zhv6ScRg01Xxzrzjh13Y7ZyzApIILDEzSx8+XtvUaJHQylWBrWvWBLYIKb947gU78/cPWiJTfd6rUJl3GwBqJYCzA4hlEkXXL1lq6xcutCrtNpRRWGQttFVVqohCgrhRrNIw61Cl8su1eeUGOS8VavPK+C6dLbtTR8tT+9Ikvsp8IcOjfA0kvjrutdtGHMSX6qwjniA8ko2uELHqikqrLC+zSm3QUVNZ4bbjolWMS4JsLonixm6nJc3FQ1TJgwclY7c/CB0EmA1CdcaBvfrNq+14qXCpLXJrtetxUOszHMFXRVSHxKDDXqoCOvdAxGKZLR33oS159bXxenWf4hjSKID8sgY1rhAtBMB/tciPOEgPrxSwndXlkos6sjNPmpb3VogT48035dG/2Em/+4120O3sfsPR9hTg1AAdALxJBGS+VgXWTZxkPVLSrH3HAmumzT2TJZrGKw3EBsDnA4SgMLRlNb4I7GqzubDQVi1dYl+uXm0l/fpYl+OGWksRA3bBcfsQ0BjlP5SB/jourzYhORVrw8+1ixdZsThu9aIllq4t1Zpp9iVZhC5O/YVQVAnRyyQJFWqMq7SsN0GcuVlBB2vRId9SteswY8cY7BdCJyLAqr15r46xVZ9NDLY/fliMtjMXoQrtJA7R4YSnMiSyufOqddwbuxC9p/ii4kfhsfUf/oi29of7stPl0ELQTs05KA/4oPQ7ZMFt3jzNCgs5M2Cw4lGx6Wkda0u2Hjt09M8TOkl3hBjsEfkFaCAjoj4rAqe/846lfzDehgwZYu27dXWbU7LM1HE5xHml9yqC6twWAH4X4aYQHP2u0MYi68TFZnw20Wa3b2P9zznbWko6wNq9TZfdVsLBuaHttJP+4m69YvYcW/bpZ5a3aKl10g7CrYRkWc10VoFOHHI2jnBfaB15nYSAOqS8GzVeq9W/+Rs3WHn/Ptb5mGOshYjlfiF0tFMEgM1Z3vu/XwQ3fj79KTWhTDFdke/Prr6rFJcozu55cc/5s5+fXaV7AjACrBzxln46s6sQjQTAj8WOhMA/1ZbcHU4/9bWht/2wTsAjeVaEX8C+qwBAwwVJsVBIuvT3f7IzR460Ln16W6LsCKgObDDhA4izN8ETCAgBujMIv1ri6UdvvGlbTz3Rep9xhlSTdInXlXsmUHtT4V6mcVKOEJ+9FJdOn25zX3rFjomJtR6DBlquJCj67JAcQkfU+BD81fff2Qg0Fowd78qFpGslOcycPNnmitD1O/ssawGhU15toPKV+0gbcOCRWB/30f/94icq7ne0ZzcBuxiNbpQcv36/9w4a6+dqXL8ZA4iBjRg9On7c6NGfnvnE3/vldOqojUQrtO+8e9Vgjx0yIJLrEIqPnv63dZ0+y0ZcdIFlaKUaYixI6wHeFxCJCPWNYbyLfB+Zh3LY6Xardhoa+8JLNknKzIgf/I/l5OeHpyZ96gN0FUpg3cDRZrPUm/H/esaGrF5ng085yXJ0qCqDCLGjz4T6/XYP6/3xfeUxY4G0oN3UbY0I3Tv/etYqLzzb+ooQcCAJpxq5sJcENJQ4RHhk36nTeQSBly+8dFHzESP6FY4dq1Vi7BXumk1SED4y8iwqAtSuKYSndpaOG3edtui+scPw42u0YWjs7pEfI1OC9gAssRfuf8DOjomzE847xy1EqRbyEyKRAGAHyNH/WX0IolQhBsuFlfS8512CkJwZA34TKcOX41QIIQgbY7QJxNk7d91jmVrrgJFQiQ7cd1Q7KB8CtGTyFJvx7e/YN0aMtEGjRlqyjHmO2IWlHN9e2u6Df+b7wXP/3r/jmTO06pquLcsz2rW24OczbOxrrxuG2nSdk+BKDLeF9HsTKF+EOoZTn6sqq3KWv/b6e3bHHUuUFwKAaAbFoujtDdaPaAlNBCDEBerYRnzjpEl/O+ZHP2yRrD3mhGyCnYaRCuDVqjC379/z99xrN+R3lGfZUGcIq8/1SQvig9gg/KJFi2zKlCn2pbYQI67UPoLLxPG4X7x4sftNvemaKXAqhBCLMnxbnAGRdsl3oMtRR9n4e35jlZqlSNP0VrwMjPs9hBEOojTz7Xes5oE/2BW3/8Ty2rZ1LrS+v759HrEhcrTVEzPUINI6Th9+xz3pff98GXrgvC3Tmje3AhED+lglotcsP9/ZBpC8tqXdiw47NSApqVazEYFl73+wTFnGKQL7USHmq5+7DA1D+C6TN8oXAAKc4CKdM/98v6uvxAFk523EfddBCAGuFHsb89Af7OKMTOt99NFWhbGwHsEAsEH8Cr2bLn35Cx27dcIJJ2jP0p7WkhN8NR0GopCvUiJuidYkrGL6UelmzJhhgwcPtqOE5LznVBtfPoizXpbrYqWn7Ff/8Q8r+P73rN3QY4yTgXGEUWLf4q93VR8QzT9//Q3LemmMnXnj9RYvYgDXry8h0V+QnrBx40ZH2Ao1mwHh81IRbSdNhohWQUGBGwdPHCMJAcQCwkg/KrUB6LuP/9XSvnWj9bngPHeSz770kXI5R1HHesWOueIaTiA6XZEBikqur35vC0yLRXvwQHCNjg9zc9mRyFZ/cEiMy/DkMa/bSXIy6XXSyQ0iP/ng4Evl6PPvf//brrrqKrv00ku17VT2TlzQIzZ5OmvacdCgQY4QvP/++/avf/3LzjvvPO18m+kQibQgR25urkN+ZhdOu/xy+8+LL+uAkWzn347fwr4gCPU2FJiK40SkeR+Ot9R/P29n/c93nd+CGx+IYDiAYHB6IhLNZ599ZilSDfr16+f60kwqCmMB8pPXE7o5c+bYuHHjXLru3bs7YugJBWW1kG2B8pKU95SbbrJ3//KYzdHzbjraXWcqOMnBt2F3VzBdJwkFEjWGSW3bHFWxchWzACWKUU8Eol0FAIoRA7u2Gnrsb7qdfSZHy8o9ZMdtxPXeBRBCnMTWz19gZQ89Yqdf+U2U2W0irE/HFS43adIkx8lHjx7tpgTTJKKDDO3atbP2OnmXa2tNm+XJet5KPgJIBSB2lsReYpcuXSxHp/L+7Gc/c1ID937Las9J4bTpQvhcIdfkRQuthcqTq7MjZI6/AeJfITixWYhXqN1yVn//Vrv0//3Ebbnl6/dFeq6PJPKm1k8UyY8CgnXmmWfagAEDXB/oH/2C+EHI6GenTp2sT58+1q1bN5s3b5699dZblp+f7yQDiATBq0AYPtnko23v3jbpscctVi6+Ok1JOzDpGCf5FuxR2hGRBNclscToYNKk4sWLn9aDDYp8f88AdBt9IdolAE8ATulwwvEpWjJcKycbOec1jDXsB481euKzz9kNl1/mxPv6S0lBCETaCRMmOI7961//2on6IHTHjh0tVY4xDQVfJ2oBEe4HosAZTz/9dCdBjBo1yhENRGqkgCRtRkp5GBI7iFislP/BKs3JJ+rsvDTO9Wu4Gw1Vv+Mz9YEdk5jjf//Pj9kPb7tNbUrZadms7yti/l//+le7/vrrjTa2lX2A/oLsILHvG5WQByICkqP29OjRw/r37+8kgR/84Af2rW99yz3jHWkhmKVqB5JBqqSKky+6yF7WeQsp2g68WXed0yepZydpR/lcXaEK3b3F6ORyHUGWntdKroeWpzhPEfiH2kStLSDaCYD/8CNytFJsd5wEjsjuv0tmzLSji7danrh3Q8gPwKPDw7Vuc4iT7HTdNjpllwBQEyKRwj2I+EMa3gP8BKSDZ555xiHGHXfcYUgSIBBiMro0CEL6ngMH2avyRWjeoYPFp2dYkhY27YQcEfXsSkKgiXEycn7x3gQ7v1lzy5O0Ut/GQRuRctatW2e//e1v7Q9/+IONlP8D/aRNuwq000svEDoChA6icfzxx9udd97pkL1v376OsGEjYRzWrl3r+txc0sSx8hdYPmu2JaanabWe1kzou/B9+H6Uj/MP9glXl34z4rzX86AORYXoowIQvNOPtwOFnkbR32gmAPBHCEBmbHbOoJScZviiu72jwjiqV4BOiI0CTLjgLhr3oV0hW0F95gpCAKyIwB9++KHdd999zpIPB4cb7g3iqzIXqIvg88DtKQcR+9prr7Xbb+dk6tB7JAAkDoxyWbk5dpQ2OGSRUUoLeeLJUQikCCcOybrqEo+cAY918Go3yEGfQ/WGZji2FhbZ1ldetd6XfcPNbvg2+Xrpa7F850H8Rx991M6QYxJI7ANtj8zjn0deff9IB5ITKeuss85y96hHSDueyGE7gHjgZDX/3Xdtaxet49DYZhXku+/hznfQOFTJqahSR4WV6Sjwkg0brXTTJgvqd115RczKzz+nCXcq3qw4R2rVQ1KjVuo+KolAtBIAsIK+VyeKwRaMGtEmVdNMcA5hcQhR9NKhjv7IgOR06qKlyyx/xSrLPe54x40iAZx7Ikj6ve99z5prCgv91iN/ZFoVvVfB54HTE0455RS77LLLbK5WKSI6IyaDiCAIhAeOXNCtq30wd5616tJZu+FUSE8WlxUyItIHpMJQphPBUSMkiuOJx/w+fYeIBLVUlmdLNGtxTOeuliZjG+cg+LbQDu5B3ldeecXZJ7zYzzuP+JHped5QqJ+GdiENPP74404tuPfeex3CkxcbAqoOafA96FPQ0ebO+VIzAgmOEG0VcaiUW3G1JAVbvtLZRLKltjTTmCAxpUka0klRMbEjR9m6Xr37aGl4H43Z6e+9995lKv4URU5v9iqhbqMjRCMBAK9h7XjrFMi/7Ftz16+LSxo7Nijfeh35IF91iddOhBRyYVHHMSVLgLlUov3AggKHaJFIAdDDhZeL82LcY+oOwxdGL48QkeDEs/qhPjLUf48UAPe7+uqrnZEN4kIeysJnYLOOJUMtyBQXzZJ1vVTGwYyKcjczgLtwWfEWt1inSH73FatWW61E97qSrRZIS7WgVIxWvXpaOy2I4tRddP9CHSN+1pBjHZGIbAv1oeYwrdlbRrkRI0Y4uwRpGuprZN493UPo6CezB4888ogzDJ588skO8RlfbAoQulgRgdYF+Tbh2WctY94CayuDYL4ILn1Pl09G0lG9HFFj+tJ9R9rGJ0fK0b2e14nrB2VnqRVxaCNC9rS2kh8S3k3aw8eemtso3kcbAXAfd/To0QHFh7t27fptWaLjkgCUaTNj3Bp86b6xcZrLFqDDEeE6pTpdeKM45vxPPrEzb7nFSQQNfX3m7s855xzH9b3OH4nYHvEjn0WWszsEAvkJcP7hw4c7PwAMhRjHQEhUAUTyBOnDedL/i4o2WHOJvUumTLWVkyZbxuKl1jY1zfqLKOW2zrMUnXjMGoNacfxiichzn3vJXq6pstNu+4HVCFE6biq2DFxwhWyR7aUdjMlk+ez/7//+r+Xn57v6d9V232ffz8iy/LPIq39/wQUXOHUA+waSDeXAyTeprRAJphl7igBBaI/Cr0JEzKkyehfa1JWjvmTfU776QVKZ7IFxtmbNmlh9p2ot2uqnGZtrle4xRQYav5CoCNFGANzHFfLfd/bZZ3/32GOPDcqSjlvZjj7/HmjEYQEggI9VeRvENUE0t/6dd+EA5wJQmQrrIAMcIjkcKxIpIu/LWPgiURVEAhBRF5jiA/gj0/ny/ZV3IPuJJ55oL730kptC9PPmIMQWLW2lVdnihIu0jHimjirrtX6DXXLsMZYprghxAIEpByTSDfK8OGeOtevS2Xpoz4IXH37Eyrt3C57Wrau0Aq2kiyAA5KNf8+fPt2O0ao9pSm+o9Ijr2+ollvrPKYNQ/7nP58cAxL7mmmucQVXc2Y0thICIXYBxQ13ACJmfn+++jyeSvmz3hdS/+oG2ITVhqNV3CzA7IwJwjtJBAHamGPULaES/Q2ylEXVoN10BEqDsbTX/fuPR8t4T8geFQAGs+Vi5t0WJzIj4/K5URFeu0G90ZRDQAzF1cQ/gbdAZgXBnAIsYGQA4gBIExSnoyiuvtOOOO8569erljHvo9ljScRP2wBuZ39/7ekE8CIj/zXsQk3bQ1jQh9KpXX7POm7bY8eefZy01Y+EW2mAgUz/oL5yddnHld7Wet1e55wwYaOv//s+YXHFURyB85eEreZYs0ZHnEtPRyz139sl8mzwy0mecefBwBOHoH9Gn8/kir/6dCLRzkfbvIEiesJIG+wrlQxAI1Lm78fPl+LaFf8dQpkK6GAP44GeGwq8b9yWaJAAv2vWSjp4G8gtwBAt7poEAFZw2XSIoQOgB1IMGZeCamy9OxNy8n97ygM57kObmm2+2t99+22fbdpXuaUSs++9oLh+9lzrqA7P/DdelDtoUWYd/z+YbHdSWfCE0RMxBdZgIbas0fOP4o/pHgDi0lwRzrIgT/ajfT/qO9ELE4o9IHhki2zxt2jR74403bOzYsY5LY7CE0zJbQISIESLz+LJ8P5CmaAeSlX8GAUbVIR/3lMt7CBlSQWR5Po+/8o5IWogRUcgvc8g6hmi2CADIj8W1SQXwH6MRXb1ot166H8gTAxEQMMjxz7/aubcADwhMGhCA3/XT84wpKsRw0pKOQDreQRwuvPBC+1xTUBgGf/e73zmXX/RZFgGhSxPyhbRIAzgRISH4/O5lxB+Qnzrgxj5Qj28bbeCgTN4T/TufdldX0qE3M93pOS3PCLSFckEapueQcsKcc1u9pAUZ//KXvxhOPfXDQqkYEDjevfjii4ae78uvn5bfcHiIDKqSJzZIHOShPSA8KhlEgOC/D/e8p+/0BwkBpOceokkbudezOtlt4sePHz9Z3+7XEDaF7YPKr0YeokkC4MMCzdNmzpz55/z8/G/Lih0UQMUAVAC3B0aPWPwGcAAgAId7/y4SLgA2olcP6qd54oknHPKTB/+A6667blv2c88916kEd911l/35z392z3/605/amDFjnNWbcn27fCZfn//NlTSR6XwbfFpfjk/jr/Xfk4/+Mh71A3lARuwVECH6S/Blc/3973+/zU/hO9/5jo0YMcJJDLj73n333S49Pg0QxJdfftnNaPj87qX++LZRPsbUSEnHvyMPbfQqCAQY4kRakBuiQF98emZJVssuQr6CggJHXKSWBJlSVfhCyL9GVzrdRAAYkUYaYM014mAvv/rqq98GSPLFdaH8ABMAA4DAbTwicAXYAXyAjN9wGtL5AJARw1xlG0fiGdIG3nss8oEDItISyO/zIU7j7499AMv+Rx99ZIjQeNb5dL4urrQXYkQ7uBJIR/T9gDv78knn05DeEzLe885Hn96X4TLV+0NekA7uG1kueT/++GOH/PQBNeaee+7ZZg8h3y2aQfnjH//onkMEzj//fGf3QDVoqJ++zbzbVaANlP2JZmhYF8H3gQgwRqgQeBTSHyJjQiQPRE7tjBUhqhVDuE5tL1IdeFg1qQC7Guwj/Dncv0YW5Xjp23cjfmKtB7EFAA5AADREShapMN/Mun3ccDF4AfQY+gAcRP36QElZAB3PmRHwYYXm3fnt833zm990+j4GQ3RZDF1EAr/hrgSIBQQAxPKBsvmNSkG7QUKIDsDtkdoDN9zTv4f70TbaQHqQhEhZ5KVvEDn6RT7GoCGuSztI70Vu3zZf/wsvvOCaSvsgeJTjA+2Cm6PusMwXYkdgxSMEIDL4ftJerPwsmvLjTT8J1M0z0tD+fBFyyuee9hCp0wdmDCiHMSEN+TGkKgS0PDuo7/0TSSkYaD5QjBoiEE0qAOJdrZD/DHGegZoFqBNiBNAHWaMPYnjA44qFG33cAxE6L8QAqzMSAoDoEYB7uB4iJvdICr4sAJRAOSAhCPbAAw+4Z/4PU3o4ERG8Xk09vgyfzteHOI0YGxlAWI/U1A9CA+wgkH9OfhCDK+8on8gY0DYInNe1ITC+Pl8PaSnX99M/5wr3fe2119wjHHaQeiAUbIxKWXBj7BoQGd77gD/BNddc45DSP/NXCBfj4A2StMcTH9Iw1hBN3mOX8O31fWTMffTPSOPTMU4qP0Z9qsEfRON6tYqFAERNiCYC4FlpP7i1gKcOhxAABMAGSTxC+CtQ4IEFwAVBmM6K9HnnPXnh3IjA6KGkBSFBZu4JnqNyhbhACHxepBECZYAsBHwDeE9bIq8gKjMJSBAQLR8iEYN2YmzEpZcPjAswS5nrdOApbs1+7z6Qgr38mSLknrpAKsoFoeGYPvi2QiDg4Eg1pPeBdvOM8eQKgfnNb37jX7vr008/7Qgl/v4QTCQFZkc8F6/fV8aafoHgpGGcIVa0hcgz8tAm+kvgOYHnRPLQH5/fP2NalzbTb6WJgcCrzV2U1jEKV0gU/IkmAuA/ZwrWd81Ny3EspN8DYABspPjoEYI0RDgNgIZawDp3D2gUCtIg7vIe0R1gJD2IDhLhGgzXpnwIAAhKABgpB/dhABuE8ICMjhyZxqdlJgGPQ1bOAdTk5x3ADPKBMBs2bbTuIhCl4nCbVGaJuGhlbY2VVRNlBdd9hZAiUenT4uItXYQqXWvr07MyLad5CxwlHJfH1Teyn4wDBI3xgghQF30i8AzpgLGA8NFPiBhjQhn8Rv3xaT3Bou++DF+Xv7KfAvsG8JtIHt9nvg9jzEwBY89zIshOXf7KPW1ijCID5cVqWzWOC9f0ZwybkygPKgBGwCYVIHKwGsm9h4APFyxY8BNxIK3uTdICsfLAVriZgNsBHsCmDnPvgcZfQbAScXjWv+OpBnC5PEpPGggDi4FAeJAcAgAS3HrrrXbDDTe4xUEAWv2ysROQH2TAGQhEwXhF8ISIKwDOQhk22yA90XNcCACIt15tK16zzuZ9Pt2WJsRZUkG+xbfJsyQhbqKWzmZr8QyuzrQBhOYEnzIRijWyeXCgZsyUSdaysio4e+Ei69uvX0wrcWp26vVtpj7UDwghqpOfz4dwnXrqqW4mA26KBIEdhbHyATEdxOQZOjniPSoC7aYvvg6u5MVOgM+AR3qkH9pMG0iPgZUykTi8i7AvhzKQgBi3OEWe840hBkhAuHlXasw2b9gQnLt4cWDpsmUPqp13hNsaNTMB0SQBYD1CvHtDc+//J1H9LnHZQG5OTjAtI0PrALZbzcNA4IBGf5xvKB52AFELbUQBB8Ye4APABjEAGNkOCws+ei4cCnXjkksucZZ9pgPh7AAr7wBm8sI5IRYiTK7In//8546jemD219dff93tMsSmGXBD8gLQIAv3ULglctNd26KZ5Y0YZt1EpOK0c7G2xdYinyStnU+2gO45ZgwqRx4ycaqPdkG2KhGCMrVt49JlMZXyT1gq8byVENUH0oPAID0GP4yniPL0FS5OP5nKZGwggK58n1lXEJZnIDyISRg1apS7+j++r6g5jAvjR1/pJ2NGPspwEpMICd6UUt62ITtjCoJDNLTiz0o3b3GSUIXWcyD9lKqsrVB4tTkut5n2VssJrPjsMwb+1nAbaFgTAQgPRmO7+A97t7jum4ovZw8Z3CGjuDiYk5AYw7ZTcIvQiXHCDQFaVbV8AARUAE+xgChZp94snjTR+mqmIE8IHykFAKRMfzEXDjEAOeCGRAx/ePDVNwAywAAzRIFFPqyCY6WfRwQAGqAH2bAV4C8AEhJ4jpEP7o8IXiRxf5b0/FE33uCWAetoa8491G7BqSICIQIn7HF5+cOdF4v4naL2J8nwxtLo+Nt+aAveetfww/cclzT0kf5AyN7VmnxEdJAQFQq1hOlMNvVACoLTw+XpA4FyGANEdojds1rNBzGp39el2kfx+uuvt1/84hcOkekn4wNSUwZxjSz4aSJo5ZLIVkrtKtXBqqg25fpOm7WJaI0IR7wOB43LzbbEgvaWor0RkILSwwSRhVCcccCpQevHjquVNMD8bIVi5JDQ7EYdtkNDo+7mDp3zfQ6mNms2ZdAPvz9QXLGurLg4UCsduU5AhHhIwDjmTrSVyAywoDNy3SLuVvfq63bJFVc4JASACVzhblj0cXJ5+OGHTYuO3HOAGGKBhAB3Y9MQjFwgE9OAiM9wQ7ipL48y4XYsvoE4sBQY7gpHBOGwkkMAuKcFY1962dKu/IblaDosQeVwuKga6MoIgfWOsO1+IeHQfh9VDsehISV8/Nxzdmp1nR0l1QY3Yc/RuYLUf//7390WXhdpmy4MozzHCHr//ffb6NGjVVIooB54Du6fsdnp5drM1JfpCR3iPBIOtgOIDGNGZExJS6wUIRjzzLNWndfSMrp0tlipWekyoCalprhTnZHmOKPRfTv1n0AfqcPVpzJQB6Qi1JVrJmjCnXfPDVZV91MyXArr00WyN9oQTSpA5EcE9pMrKyvSsIwnJsgAJs4EkrogAHEhjBQsLwVBWFueIM7SrX8/m1Sy1aZ88IENRUetZ5lmyot9/EBYuZm6dfOU57nksGHD3FQhwM5sAETAG8JAFNrhEQMHF6bP2F4MuwPSAuWAaBgNSQugz5XOv3FgP2vfpq3FStzP6lgQEoUl1leprRyCySEmbBHG5h86KMOpBdoH0W2pxWanSAyc95eA4U5p+p96ir121Q3WTnP6KUrnDu7Q2IBItOHiiy929g30eZAZJANxUWEgZrj74tHIeQcE/Clw/kGSQWogkIdIP+jbL3/5S2c/YEt0r+bQT9IQIMorZs+22JHDrc/IEfomIV3fvQ+n0eC5tFyDKtfZAtQfDH7VZaVWU6YpTnZDUnD7Beho8FDpoWzR9Dc8UtHU5W0UPjGpfdsZp/7u3m460rquYktxAD1fkLbDYAAgcew7J4RJSE1z9wBWXWWVPffb++yG9h2shwCbVYMEEBdgBLEx7sENnxMnxZgV6RizQyX6QR6P9LwD6BGRv//97zuxGtEZhIBQQDiYiwcRAeo1qufFz6fZid/7jkPmGOn5JavX2Jpp062ILbBWrHRmbaj9JsXtk4fUJNFcSJskdaVZ1y6W262LZeXnK3awTBGceeM/ssTH/2ln3vwtt1FKKEeovUg7tIO1DVjsQVqC5+YQM2wBSCqI7UgC3tGJ/hI90cVoiPrAbAl7KtBX3iHhoEZ40X+zVIH/fDjOhn33O/oeKRYjQoR9g30BYzUWTGsSw4itK/sDhsCcA0c5uVjHv4fSSQLgu0+46+45dRWV/dV0nDZIvCMQ6EFjDVFNAJLzO8w8+09/6JqYkVlXW12FqXin7+xFRgcX2oLaAa7m1DkZqGLTZnvhp/9n3z1hhHXWbjosqyWQxiGnEAT9nK2z8FJDIkCnhmOCPPUDVm5EXRYDsaAGGwLegAA/ej9tARnQrakD5C8Ugvzn+efthF+PBvNs5eQptlhnFhDaSHVZJbtF/ZCtab7i8jLZOtROIVqd9Of6IbltG+v1jcus4IRhNu3Nt23witU25KRRkna2qwKuDeoHxAq3X8R61jYgBewqkIfgiR1E4tNPP3UuxMyCsM+At/rTT3R/+g8xqJIq8JZmQVr96FbLVvs4Ii1DqocLer/t+4XrcDWF73mHVFMsYlm6dt12AiDVTyrAbBGAASqniQCERrNR//UUPiW9a5fZpz94f358akpQ3F8wuQt66IEo4j06JOJyqYD0pV/cYTcOHGxtu0gf1dCBmAAswM4VcRm3UwAd7zNEYU4HgiNCCEB8OB1LgtH3cY1leow5bpABHRjxGOQnP+VR91oB8wuvjbGht//YKmXtnvrIn9yHa5+fb8vXrJZGW+WWBZ8rjophkZkGdizGSIetYYus6sLEEDKqnXDTgLgp1+r1oem77D69bMDVV9lkHQ5yUWq69RaCVqstIBfjRR+RSuDYWl/hpj1vvPFGdyAIU6Agb/1AHqSCWbNmOTXhySeftJtuuskZTukvRAHkx+rvkZ+pyA+fe95izj/XOvTr48z0uSK6IDWEb8eg71j/U6rOEAFYKQKwdjsBQAK48+7pIoRDVAbUkpw7c4IdK2g0v+oPU6Pp2G464j9wVnbPnl+e/LvftNLGmUHpxmDCbrLt/MoTgXJJAm/86VHr+fks63+BOKBE03hxX9QAIkgOkgDMSAQAvxeNQW6muxCNiX5KjXTo+VyJIBiBsoDOxZqme2vRQht27dW2RZuVfvHPJy1O9ea1aGkrNH2HpIE+zcYn3qvQFaA/7DvABiQQBNrhubJ/zxVkwYpetcb5y9uwX/3S5mr683QNU7/hJ0gdYGXkdv8ACB1tg9AhwdBmDJee0OFARB/oO85Sn8i2c8JpnAAAQABJREFUgeSAPYSZAIgJ7yGGtIl7qWbOvoHRb8KLL1v16Sdb52OOdgQoR+oKJ/3sdtvzyA7thgB89Ot7pgarKo5RcrQjDx+RuRvtfbQaAfmg2gssmPh1iD16Jmvnk+RBd67E0i/fesfeuv9BO1qGrmbSn8WyHeCA4Oj/TNVBBODsIDtI47koXA9igMgLEoBA/PZSBJZt0m8RAs0UN17Yro2N+s7Ntlk6LcifImQtE9cG+ZlqxJkIFYJAWUgP1AECMh9PgNs2hPy8A7FA/rjsLKsRgVuovg3/0Q/t3RdetA3P/seGnXeuJas/lEFA5UFKgagwK4CdAi7OiT/UR90E1B9mDEaMGOHm+Kmf9iHZwPEpgzFBysG4uVm2gQ/lQpwiQteF2QipLuk6GYjtwINMh+4j0VaHXTt2+BPYSYTY4XVj/hHNBEBHRifvuBfgV/jSEAGs4xieep93thVKLP3wqaetg07o6Tp4kGWIS+F3Xiqk3p18ASL4SDMgFG4aUuUDsrj1Lp3zpU1cvdK6CvlGaW/8cpU57Y+POkRJUSK2s8AT8bTTTqMIR0iwP6Cbh9e9O9973kGQQLg9BZA/Ia+Vrf1E6svay+2UW262adpu7Mm777UzhJRtCvKdLcEjOIQAooDkk5+f79QZENoH+ghhg8NDIDyxI49Xl+h7tcZ0iaz970tl6XPr9625/A3YrThFRC1NU6FsX77PyE8jHAHY3h7Xrrog1MlTBn91rxr7n+gmAMnJ2g40hGBf50M7Li7Ar6nUqsDu3eyEH37fZmv666VPPjNt3m35BR0tRxw6URyTKSkCiAAwemgDJCmH9hAcIglJisQBV2oabY7E4jwZ4Y6/7EI5vARtxuy5Flw436VNkHhdJGTC+cYvLUa8RsxnFiIyIBV4jhv5fHf3GAoJhXPnWYtePW3A2Wc6Qvf4v5+xYbL+9z5uKHOcrv3eYxIOHhnoD4ZML+lwzzMCCO/tJhCH9bJtzFS5W/r3teN++D86ASjdKqUOpYkQYfRzY1cPhyPr2pd7V1aVGjN6dFBxX7I2irQ7fqVG0aW97kRCfFJyvONOYGEEl9rrEiITgryK1RJnOZGnz4UXWAeJrOtk1Pts3nyrnfCRtUlMsmYSXdMlFSQz/y67AASBfCAOkgTuqyUy6G0p3WprtpZYiab/2hx7tB3bo5tsejX2zmdTbfDcT+yqPlm2sHSjPas2xFWFjgZjncFDDz3krPC46uJ0xLp8RHAQDmBHv/bcOrL5u713XFP0SghLhDvndupoZ//kR7Zs5hf2l/+OsTazvrTORw/WYiIROqk8jpBB4MhD4ZQRHiNw1/U9TOzod5kQvFCOUYukwhR2aG8dr/qmFUiNoq0QiuzOnSw5p5mKqW/w223Ld3rpCe72FxBhSQC/hABsfxotd9FIAIA/4CBJHoAo4eGf++eTO4lCAMu8dI6kgQy5DrfX/PhWcegSceVlmp8vExLGbCi0Wu3bL3nZEYCgCEGsiIJOwNTinVaWKV26Q/Ncy1F+UQmbOX2Wpb31gv2sv9xwLxlgGWkpVhO/3OzDVTKWhazx9GB0BBfDaxCDGwTGcbqv2EUtlHA5mxVoYZH6VSl1hMNGMBR2GjLYOkgdWSYVYaJsE0kztU4iJmDZInIZmuXA/dYju8QtqxUCQ+yYMsWNd4sknA1SRVarD4ldOlurQRdYW/WdOfuA7B4pmupLUjl49kFMvm7YQXBw4+JKlIugg4n9Cwxft7EHIX80EgA/rGx7u13+hyTsAB0+2Ve4AlgAq67xmhOPlwNRqpCxuebk8wX4+J9XCflxueUUIpATJGVqD8LBgp0ELc9NTE+11QsW2+Snn7FrspbaoIv7WUZ6imiGJAVN8eXnZVqPDtn25bJNlixaVi63XUR8RGqMfuEdb74W8tP7QGmJG4TJY96wRHH45vIydAZKEFkR+0e+1IAsiejFMhxulSFzXmGR1agNweXrddUiHvU1nhOHNS4xIl6xGZkWk6mNRTsXWKbK7J4tRE+Xo5WkB+d0hXekiCGOPHD9vbb27/PncjLBzoLBPpdzZGaIZgIQwHPMwl5i+w35PRwIoQkOcLnRbxbkUGe8gDvFi8eIxuEAEYAK4XlYI4PXh2+8ZwVP3Gf3XK1Td1sPdWI8iO/SKVtOZrKdflwXEYBJDsmTRARYDuzYWES5vvyvcs1MiZM6oim9gR2se9oae/+qa22RtvUaOPJ453fPLIhHzoyCAkvU7Ea2iFueEB4poVbv3WrDCELHOYU4UkHs8OLTmX0hN2T95qy/GL1HSHPqg9ZmMHYufpUO1MuDwB/5rUNfqV6iKPoZzQQgJj4xQbh0gEEgonx25ZF5LwxeIaCOrB9JIF7cf53Ou3v7j4/Zd3O/sKG3XmiJ8bGO45M2EC6PkqBdPTu3tKvO6GVPvjFLT4KWkiAxW1VUyVD4VWgAxVNHYhxqg2Yyy2okZWRZvy4trEPrHBv6qx728di77bHPTrazb7xaKkpbzcuLCKhvqD/JsllojtOJ+U66oTEqSJ5WIhTYA2i5+hEn7z58IxSdMw+jQjoiSA+W6v/+QnyKJ4S+Qeie4lFHeBx6En1/o5kAJMYmJIWcfw7W5wfiItlPBLwB+AlC/rmfTbKKH99uD/1ghLVvd65WJoY8AT3i+ywOeIV06SkJNqy//PbTkmz8tKU2YyGb24aIQ6IkAuwDLGaqU1q6qdttwSM7hATiQrpKqRG1SltWFUp44qD2NqBHG2vdPM1aNNNW4OLcp511mXVcuMz+fOUVlnvXb+yoYwaJrGlvAlnwfQUQgzgkLAIVNRRUXwjhHRJuT7er9A2V8TWfQZSiOUQzAUiK0RE6AnypmPvuBbg/gQZRl3P75k+cYvFC/pvvOE9GPrdVlUPMSCmhfr0gUFZGkg3u2cbyctOFrBts7pJC+3TWGqsQMu85RFAEJY6PjbH8lmnWqU2Odc3PtYI2WsAjVSMtma2/2BBEZdZUWtdO7e0X/5trrz31/+zJGVfYBRefZ6m5OXolFSVs3adtId66i3Z4RPfXPTd2P6TY3l93F6JN2x/uhxqOpCKikQB4diQnAH976D4ZyB8vnX/tgkW25bYf2Y9HnyuuLt96idUBb5/YQ/Pg7kmJcdapXbbliVP37dLKRg7uaEWby2zjljIrKZPFXeXB2ZlS03/HlBOkWiQnxVuStg5LVExOjHeEp1lmiuVmafdeESGeM0zUATaHhiy0Jh8iddlVl1jPGZ/bA7e8Z8PvuctyNV3HWgFPBEICz6Ef521DGInqIv7bnkfpTTQSAP+pY0PLRiUByKXdPzyYVzgk23WVFm2wt+/4jT1824kO6Sqrqvca+WkvjXfcVtc0qQTEViIE1eLWVdW1zn+gvELed7qHg0MICKgVkoEsTrsGx4sYYGtIEUGAKMTpuWPg+kPy+gNEXicNxNTZwEF97K4W6+yH11xvp/5Vqxi7dxUR0DRhWBJwlR3ef8I6yOHdyAPRumgmADFuFkCADDrUB/ADMdg7lCnEwvWVfQVefPQfNnpEqrVr3dy5yNbX93fIt4cfHrnpDwidlCDPw1Q23QxxcScBhPDflQRHR9KgTi9xwO0px4+Jv9avmrwUVSlkb9E82/7nssH2xA3fsmP//ldr3rXzjpJA/cyH6HfIErJT5aEFDTs9bvwPQn6njb+fDfUwISCD1q6Au6EM+/MZiMN8/cS3P7Cbql63Pr17uG23vg7y0z764/uEVAAiE7kHYePiODhUrrfhGK/fvk6f1pfDdU/B1yVSZu01S3DFRQPs/e9+zzavWOmMgM4fYk+FHKL3vu2q3hspIh4dokYd5GqjmQAkoQIIXSL44UEafSEjvvKb1+kcgJcethNOPF8WdDEhMHQ/B0qMLBVJAGKwPW6vsH7a7W92fxciZgHLkM9Abm6mXX9KR3v1V/dYubz82GrscCYC4Z5FrQoQjQTA40PSoTICgoSsAVg4d74d3zPTUpPl+CPLnG/Y7tHt8HtLu1Eb0lO0dZpsAnmtW9nVeZvs1Uf+ol2TtJ2X5vqdDnL4NT2kw2iz48OxaQejTdFIAPy4BrY5oPgnB+nKHnXsPLxl1mwr6NjNWeblkHCQaj8w1XgpIDc7VQuaKqxLj552VqH2R3j0cauQJOAMglC+wyyEFxc1EYDD7LscjObEOM7kLVkHo0bqEBLA/TmNp9WCzy1bi11q3c46B6YBoFwk2iH1OKMfhr9whCA5aShMgyLT722ryAoyZaRq6lD2heqqCut19CjLn/iGLfl0otWyeIhZga9S+N424iukQxVSwPWQcGRT4VAf9ulvNEsACU4CcHPBBw8qqQnr/9bNxdYlvUzz9+jI+7d+Xxq0DU/AOBBcEVhnWrC0vNq2yjegpLTKXZkirKpmfT6GwnB6Miv4styPPfyhGxgVs+U4xBQkExCDju6mLcu/cLsVhfBrX0rcQ4X743WoOYdZo/ZHx/aujGieBkwOGQH3bqD2ZyqQbKv26O+YqNNpJQ3ooOKvZf8DekFXcJayuQcZq7VrTkVVrZyAdCxWpZBc9yCmMwAqDQTBoTn59BvkxfEHX4B0TR3iGCS64QiDr0PJdhkogzKz0nVK0aYyt5a/ZYscy/p4rlsOnarTkvwW3bss5AC/2FnVomfRG6KZAKQ5sfcQfXvqrtNq5K8aPNiCoH4aD+TGiai0vEqxxjn+1AUl6msdPgEfAE8gmA9395JGWKcPIVICK6uoseKtlbZOBxinS5x3bsDyTGSDzlAZoZl0kL3hIOcmNSpWzkVMKyZoqjUvvtIq2PtAqo5WACmbb33DJRyCp4ddgw7WGEQzAYg7VJ5qIGJWs2xbXRIvYyD7/e/95wZSSQ6SERDpt5ZVy91X+w5KtMc7D2SO1Tp6lg5v3Lje1qzS2XnlypOWb5U1QvxAolAQhBZBCHIw6GaLq92kczJNpw/10WadHPYZJ2KgAzlLNztXYdyCIQi4HFM3nJ7FQw013b1DnVAN7m+tTlGG0DgicnjhGsfBRXOIZgIQ8gR0X78hMD4wYOE4v5agZmi33QnJXbQx51adD5AuxBV3DIvvDdUcifggHvr75pIKIWilIwJw3MQEVt/Vak+AtTZv/pe2OdDNuvc91vr2v9JStNHGbx/6o/3ypz/S+YIttf0YW3rL+qW2VIpQuN2CtaX3/Llf2soZk619szhr1yrLmuU2E6LH2NoNpbZuY6lTC1iBmK0FSBADQsinwN2KOOiIL+0BUCO1Bmcj1I+11UnWXZt9QAAONfqH5JdQW91fqNVhKJJEtPCA3kYzAUg8VDaAOiFHonb8SRs6zObMfMyGjzrJ2QGwykcik0d6iAYMHyMd4jmLfIpFAAjxQvzUlGQr09Tb9JnjbOGqWmvf51wb/o0rrUe3rm6b7mRtulFSstXaNEu3EdrTv61OKWKvffYJJLJDL7vysjV38Jyz7VNt7/WTBx+x9pntLOe/b+qQj27Wrp30d6FvuWwJZULqDVpklKNFQ1np2uCEtf1qI8hVqnfrRSggqXg6FhWttc1delpyZoYjcM44cfDorRuj0B9VGhJNGpRaIhJG1W00EgDPhJKc3nsIPject1abXvQ8eqC98lKm5XVYo11xk8QxYyxHnJVZAqDU4YlaizGPFX2btuiwEIn75MdYRzqQceaMKfbl6mQbecYtdvp1/ayTtuzKa5VnzbU9GOcMLF261O0EXKYNR9kyLIdNO+oFtvjifD/KbK2tvbIG9bJep51qhdqZ9++fTLShb4y1wUMHaa+PTKny7O5b5ySCQhn7EmQ8RAKBQFWprRAxFhdVa1OSz2fOs04XnOq2RgvpOnjdup7Va8EB/qkqHXFVu0PtiG7O70c7GgmA7zvnwR+aIAxmt9sUbXZZ8J3/sXu++z929TeO0fRZim0q1t55QiiQHM4PomGYQ6TW9gU6RSjBGde2aBZh+cp19vr4FXbxtdfbr75/mhUU5AvBWzquzyEk5OeAjlA5tY4jO+KiXnuDIAPAe1yTOdmnXEt5k6QupGgfP4hCjtSFk84/y1Yv7Gl/GPOanZ+3yDp3O0oqhTi/OD5Ij7EPVQK8ZmUhnL+8ssYmjh9rK/ufrd2EOrpTlUFAVUaVhyy4NlC7ZwOhlkStISCaCQCbgcAWDglEOqQUgrXu2cO26FShpx95wE49roPOx2ulQzW0N56IAEBKE5FU+FBw8PVL19mSVRttVqC9pfcfbnVD5tkNOqCjd58+7rAPvx+/B3TEe+oCmSE6ICeBZ67/7lfoD7/Jx6EeqcJmkJqzDGq0iWkbIXHzb99oE6bOsMkfjLO+zUusbbsCS9Wmp3EyGLpZArWXGYg12hj0sy+LrPz4S633kIGWoePS2Q/R7x0YUeXBv4UI7Rx2PkF15zSN8kk0E4AYdt89pEHAWCek66CttRNu+6m9PWuOJU6ba53jNltuqhYMBcRZJbGWVsdZYVnAVibkWk37/jogpJ0N7NBOu+pmWE/p8AN0/kAKW4orgMCRiA2nh+tz5BbqQOS7hvoONaSMOmijCEBaG+n+aiOn6oLEvYcdbRX9etmspSts4kqt+Fu51pJLiywtQURG4n9RnAyaBQO0r39X65wvIqWTiOPVtsMB+XG4Ci1MiqD5IYLgVwM2NCSN+ln0EYDR4quj3TeNZ3daFyLgIfTgIP0VYgnbLEmW9taDBlpOfgcr3TDEtmzYaIsLN+g4sXJnvc/Q9tmpGWnWIyNDakOWDsXMsmRdN2luvX2zXHeqDi2uj/w8g/MTMPJtlE/+3gQkBWRi7z/AIZzNZLSsLN5ipTrbIFHSQade3a2uexe3vz8He2DY1BZL1lwGRwx+nN2XqK2+2fDkcED+UL9FABzCIwWEP3ro4sWCQwUJe/NZDkiaaCQAfiBDRsAQB/DPDtk1CcTWiUJpbdtYcyFtJyEViOOQWhycrbIDchtmExM4epxOH64UocjSFuNer4/k7v7en7nHGXx7FYTESA1B1RXAFqG6HAKLbnJAB8SA8wxqFUF6kR0nIbB/v9vpV+1CsmKGxXFc9UEJ9qrqA55oG5pvb0/486uR0RmijwAAsaGQAvc9XIDTc0n2ypelr2FoVHudeA5SiSBUyxqfLgLgkb1+JhCZcwB5zzz/ngKcn+k8jifbpGus6sBL0Affxni1L14n/rixq09Aw230aV0aX8DhdlUfw3sVNNkADrdvcxDaI5blDG3b2cFBqHSXVQgYCaGFQbtSSZWG/6TV/zi1v1THa9UX/f1vZgAgABj11q1bJ38BaJ6nfzu2BEmBiJGwREd1lWB4lM7PrkkuR7h9ro2UIeLScAi17fBDfLVrG+3f3vLweETtLMB28r59TBr7HWwUaIgJOQLtCpAP0TC4loFEDcXtbYK7Z0ha+GzKFFuwYIF7ATBHInhRUZH7zUzA9OnTa7Oa5VSTzwfS+t84AWEoZMahUHq+phRCx5Qxa9AQ0WiwfbTZl36YXuv1JTxeDVPFw7QL+7NZ0UgAzO64AzCNPxxcU7/qxwRw4dClWoPPAaCI+EgGPoLMK1eulDaRbKt0nSCLXmX3bnGTJ06U+3GxIwykxX6AN+CyZcsc968SsZg9d6711NRdjHT5GM3rN0gAvmrDD3W+egQK/0WFqCUA0WYD4PNzDnwgLjMzaZvx7FAD5b7WL8SFc3PE+HLNIGzWacPzdAx5tizveTpSG1+AWbNmOZEeh6Bx775rvQYPiplfuN6mSWLI5LRdcfYcHeGFerBeHB8CkiZ7wsrly+3ZL2fbSYP6W6ws/4c/S9/XwdsxfaTEtOOb6PgVnRKAZrhk7dIh9qGPfCSSf2wFqDCt+/W19197TQuCqh3HnyIEnyguz+nA6Zo2nCNC8PdJn1mHgnzr0669jf/wQ+ftx4KiVatWOekBWwHIj9Tw4jPPWv7RRztrf4IW8DgjmQjOkR/0lSXtOKOmVwN0dceZRbEEEH0EIKT/azZN2ENAJ/YAcQRBOTiJp14Hier/WDjfxrzwohPrE8TRiXjoLZg3z+6+80479rLL3DHeuS1b2LS8lvbnBx60OV984dyEkSTwFViu9QKPPvig/Sc2aF27d7NErRdwNpIjcGx29RlR+TiQdAeuH+pf9OFBeJCiTQWABTDnWx6bmBwTLx06ScdyVQmbWI4LtwtZ2I8AjgcFUHvjxKVPuvwb9rux42z8LyfZsCFDLEci/vr1hfbw62Ns0OWXWrp8DJByqqXrD5TX4exly+3FF56zjnI0ypYYhBvvpIoy6yiPwlO6dbWkli0tWepB4+H+ovEaKwycTGFaealmUbUTk8aQ9RXppoWQIYTATzqqZgSOAEgPfZn9+PcUlXWdNrw4J/PCy5KL2nW0E/t2tTZtW8qnPd65s2IUcwMDkh3OQVjNFlsVEvfL5X+/SVN982Tw2yibAESgb5cuTpSPF5FIa9XKKrXAp2T1aguI6+lANCfyV2kHIc0daGvyZEPkT8xtbimyKzjkP5z7vpdtQ1VijFivALIXFxbZS29NsLovl1u7xJK6FavWB2zW9PG5HXIvK1pWtEbFQgSixjHoMIfwvfzKe06GiMf8148vvSDltzdd08pattDKt7LltnB+mb35vtmTlZdZ5uABNqJXJ8vRMVf44LN192FPCBwR0FLcGi320RFdQbUZycBNdMorL06uuW4hDkgvglanHXCqSrdajfYPIA/r8xH143DuEQFgp+TGgPz0AZGfI9fR85cvW2MfTp9nbWd+Ytf2G2cjTkjUKst0W7HK6lasDgTuuX/9WsHHSYqzFT286LZxh2ggAP5jdh8+LOGLvz/SOa5164TqivK6eHYFDgS09ZXW2i9ZPMemTq62MePb2tt559sZpx9nrSQV1AhBahyXZGr+MB0u9Fh57DW04abTd4UManzI1uHT+d8ub6hfDvEjfh9xoK+2018n6gvx63Ta0qyZC2zaa+/Zza1ethHDzHr3a2+tWjL7EbDCIu2lMKtcU6UxVZ/PKEn4yS/Wvqk+n6HoYeaIG4J9bfBhCtH72o3dpsfOgV533SP35f3tmm+2qNm6tVZOdGGgF+6IDmgDC60MjImV9bzMpkycbX9+MsneKfiWnTxqsLXtkKfVcQEtfJG4jEhJ1sORGIC89UND7WwoHfkaSlu/vMPxN4ivdjG1ySaklfJ+nPHFQpv11od2a7sX7JJLkqxT5x5a2hynrdCqZfSUvYfuKn4+o0x7JwaDVVXBmJ/dubxo3oLaHnpcFH7dwIDqTSMK0WQE7NCqJUdUAec4zIS+IlfwoVJbXQW1QWZqSqydfOog7WdfYVMnPWyaFbN/pN5ox554tHXq1FZGpKTQHvqywLsifEGHA1DsbVv2Nt3h0KfdtMETY78fQYnOWnhn+nxb/8679ov+79hjtyZb124DRdy1U5G+b3lZaANWus+345qUJHdq7aAcr92Y8tsnZM5bUN5ar5oIwG7G/Uh9lQ5yh7DW0//tXXFAIYCo1TZWZWUVIgQBO+mUQXbM0Gq7bsbj9tZbj9tD/znLOpw00o7u19VSpS/XinI49SBMVEJlby+z6e4AjADcXuMdkIdigs4vCGqr8fVrC+3Njz63AV+8ZbefMMNG/qqlFXQcpDR1QvwqGTuVXt9WJoEdgv/mcqaMYbfy9PRY6MIuVmLtkLXR/IgmCWDdxk1+0RffueEQAgq24goRgvj4gA09bqANGhy0K5Z8Yu+/+5o99dvBNqvnSDt5aF9r3aalNAftf8fJOloeS/5t4kXDVTQ9/QojgG7P0MbKYMkmpBVa3jxj1gL7fPwkO6/sKXvmnFobfH0Xa547WKlCG51KoAsh/i4+N6aRqmqdYxDLiudgTGGh2yN801do3hGbJRoIAOyesHTtOvbND/pzNEJPd/HXEwIAr1xGQrhHly4drLO2xrrgoo02fdpv7YX/mD0Re5X1OmGI9epRYClpqc7hhr3m4VIhn4JdVND0eM8joEFkHANizPhsMHW5Yf0GGzP1S0v+WPp9n/ftoav0Xbr2liejTliWtb+yUuxewX2/3dTA+xoReen++rYx2m6tzhYvqSpUltXhbB5udlPKkf8qmgjAimUrKuuqq4MsAfAMZa++oBcdK7XRJdylWbM0O/WMQTbshGr7zvwnbezYJ+3PLx5va44dZWcMOsqat2y2s1Sw25oEjbvgUrvN1khf8nEIrGmIE7fHqDd3/nKb+NFUO6PoRfvbKettyD1trE2bgXrPbkfo9+x9uHfClyMqIujlQvqKCm3RnhgIlpfXxqxYHVwxerSVKRKaCIAbhiP/j/+QS7+YU1ZSUVmXmZKseXM93VecA8AInL5TXV3pDEd9+w+w3n0DdvHq5TZ54h32yhMJ9kTy5dZr2CDrLakgGalAXoaSNt1mG+HJB8fZnO1a0AjAA5QO8Lmnkm1/gGoefP2wn4r5Sg1x3dlVTv/SdTXGzd0zTht0PtmrU+da8sQJdnOnt+2Oc8x69u5pmZnt3dbk7F+A0N6Qfr+rqvxzuP669WxvLrVCDKG4xPn+LBHy86mixhnoUMKE/xYH40o/AbOPJo/rMqxHt5RaTQVq1ujrd98TEvbBZwedrTq4Y8H8LyQVmD0w8QSrGHmKnTGguyWLU5Voe+8N6KVqSKLqZm//BLic8nIUlztgg621BJzM6fvWQRx2F7a/DhES0m5/FpGzXkEuzfY/EQl9zfUekdaN5PbSd5c9VEq4H2GZnGchQrq9DknijviByDEy6i1butrGvj/JTlv7ol10yhobckwr2VpaizBo41Fxe6lxe83tI3rgiCzt5/yFjRtrZEPQeWn6nZIYW/3qWxvi//j4pu8p/SOK+lrR4RK8/StEjlTju/cU/fLrr8x4+s6f59fJ8S1QWcmOuftnCEIcnLnoEAer1ba6q1attU8mrLQnX2puEz4xu/iCWhs6JFWzDLW2cXNQJ+gm2sbiBFtbnm3l6c2tOEVLe1MyrDhBhmhtDS63PKDTMuTUEiesCeNQ+Otsb3dyjA7hZA5c6ZJEVOKls0DbQojmP6Z8/kVkQs5MobLY9JP28gyiBDJvQ22Q0mfVnZdSKJN8qEWhFiivxPTIUAdb1YBAHIlsNYY1vlZWt0pJT+VCYk4rXifMb6usbWpLLb6mwhZtrrKlC9bYtUlP2IXi9n3697QsnZVQVxeau3f+TNvqjaxx9/ee7sXFsYw6aIUbamzhokpJcUFLSQnULV5SEbjltlUrBg60AVOnRs8UIKO2HYp2P4aN4S19Babf/+51NurWHxxV1zw3MVAhrgyA7IgsX6+726SCBA7pjLMNOirro48325vvltpJIzNs2NB0y2uZ4BYglZYC3Dq6u7Jcq/M2Ol12a6np+HCdA8CBuhJIcUt2QKx20oHI8P/b+w7AuIpr7bNFWq36qnfJliw33AvGBGya6T0mlDQS4CWQvJCE8Aj8JA4v5UFI8kiHl4SQQjOBAAFjgsHGGNOMce9Ws3rXaqWVtOX/vrk70lqWbcnYRrvasa/u3Xvnzp05M+fMmXPOnMN6w4eHYmVp/gvcQrmMIRB456DMUJsp7pYx+hgrIBqRfOCvHy+63ZSGQ9gGnTlT/8DABWmk2UQdug8IbYXwzCKdLqhA1UzMh/ZAvTjb430fTJL9XujYTQKzCRAlN9yXtYPDEcGKSBEnrt3hPBjOSUReflr8KzaJ3Hy1mJZeD8SfMQNq2Cjlz+BYZ3u2oR/xQWTYqrZ2cBeVvdLUgrrBEjA62urftafT9J3v1bh6e/y0AHwTh54scBn+qb+fw7+pxpieMK3g33vyTj3n9ObnfXffYTfPmzMeQiDMTD1cAxoz4/GCBQcgDxqZcPZpaOyTN9fBWOX1Dpk4IUauuCRFSsbHKOQlolO3rVQUwGoDldg9HLo8Bc7Gr4P+8onxGFe44GxNInRoMp7r+8asbmTkzBhsIKXz6LPBOQRqw/KR3/gmc3DZbDwzBhT5CYOoGssZYx++eoa2EflA8+S9D7vk3290Yha2yKKFsTJ1EgKOxlAyzyAmqE/QMkgVOMw/ul5gilRq7/DKgWrELGwyDIFiQVxcnR55Z/1+/4O/47iwfAYk9GlkHjOsvwal0V/6V/ie2U6O9CiJtr9z/o/und3a6fa99z+vmb/6mbflpi+XSElxIgadBwOTViFEv+OXOCCJbCQEtCuA/EE+2uKSP/+9UaafEitfvD5dWaT1cUbll1VtDcRUP45SmaEeD4+jGXiT+dUX9WeP0vzhlc9264JINLD+xjp+73633P+LGgQvNYhgUYENO/VMCFhqEBZFNAaqpgsY1pnf04hPwV51DZYajeDy8O3YWCvqYJadO/fIU0/55P1J1/vHtVWbXKvWLIQXxPX4QDQOkCZNdYf1yZDOdIxgDrk2G67fTBLnmD51y9ybvlyEoDtgZr2mtzaXSfsfX5SHflQlF188RTLSYxRLTtbzeMkHCC21fgW06YmHs7wdmgiqoR57vEG2bOuSHy8rQBAQBtgMRpqQg/NhK0zEtNlMsnV7l1y8tEz+8bcimT8nXi0jNKwpV1DcyzHAgOXzffYZEf9AdS84Lkj5ifh2C7gbK+41yapXm+Sp2kUy74LTJT0307/txZdNFa+s/DYq/vOgypMTIEvYT76CnoXVZYBJCqs2BTeGBI6d6ZMfqNsZOQtPu7v04ousdHjZ7XSZCrMcUnTWLPntmxmy+tHVkplaC98AWXCKa1GDk28Nd7ZTXxj0Rw9MOzaiMBlCQui2IYBkuQsXJMjuPd3ywcYuSUuNxmA1lguDign5n2wrkfGHD1TLgz/KlQVzE8QJTkhFEYYwrrnFLS2tXhBfBj2hDQBo9jDQj3lYNvPTqKe8okd27+2BbEHp98FZRUPd55RXV5TLD54vEffsa+TUs+eLHZGWoFEwtWzfLiW+ivNru2MuxU4hdlI5js4AwI1OC2NCEK4EAEMigPhA/pycnFinM/4c9OsPxy05b3LGtFP88AxjssFTTi/2xXux5pwyBbrl8QvkF8sdUr56jeTn+hCoM1kNRur9yYqPlBBwcHJgcr37+prt8uKKLvnwoy5sQ0VgzRy43cYzJWDDn9fXdOBeDARlJnE4LP0cQ2AghvRJw6EdQriXX22T65emqfYR+d/bUC/3/c8BeeQvqfLHv7YhKMkBcArxkP6blaxAC1QHAyAY8XldW9cnO3a7panZq+AaGxutrPveenOP3PlYllSWLpXTL1wk6dnpEGLCXwILxouNmzbJJdOz/YtmFeRML0m7uLHFeUNbZ58D39uLg9FUkFGNJZ7DLoUbATgI8dFbuTi+DZ/3v75kccE38hobJ/QuOtefMaHYRCcRdH5hT4GHXPjQ68JOsihwBafMLpa9MbPkpw/AbVTbe1JQkIBw27EoBg4kqbAeASHgWpQS+p/8bIv89YWlkpF5juzenyU/vN+PPel7Zc7MFMW21sJEedOWLpk2NVbJCdLTuFb9eJwHKjqqEjkfzvgbN3XKWWcmQ8pvBddTJ0uuKJGLL79O0tMzZPz4EnlpFfwzOLdIQb5DMgAHdmhw0ohPQkmOogkqvT2Y8asg5GNS63ws7rZu3SWP/F+rPBP1GTn7qgvhFDVPCUbp+s0QdsINHMZA2ztvy4yCBJMjIdY3d0q2d+GMgqSSvOQzm9s6b2xu78lDkTtwtLBsJHIEnA3CJoUTAaDomRjKDiLi3zMuM+6RW6+Ze9HliyemZqYk+dqd+30ds883pxditleLbeONaDjQZNw7jxuqOBCC1DSHTDxtovypokR+9+O9UuzYLtk5qVBb2dQLwyEEnGDgeBSz/mZZvvJaueULp4EdRXw/6ZEZM1Ll1X/vl8sujJLExCiBibJs3OwCAYhH+QI5BPzxDx756kno/iEBoL392redcs7iJIWEv//DPjl90Q0yvigbHUe/jIiJWJQhK15rkrkz3FJYAC9FQHQiPRPX+Bb89kE+Q10+Eb+iimpUuDSLA7HAlr4DVY3yz38ckIc2nyN5l94AWE+CdySz4vToIUhpM1Ag7cFpYmza/I5MLiQhNpkS4mzm2Jgof2G2wzv/lLzYSYWO+bsqGm7scntjLjy15MO91S1Qrio1IXsnUCvWLHSTXuOEbguMmrMd0H6rdIcjznrXzVfNSZ1SnCEpiXZPVb3T3ObqNrfA82MiZvz+FEAyHxTn5AaSi4slOh5rU7jL5qC7ZP4k6ZqUJze9uk1OffI1+coN9bJo0RSs1aMwWGkOfHjVGVl7N/YOvP9hklxw9gTo50mXEIQDoiUTHI+YLJmI/tuJJUCMkjUQQTjAWSZpE7kHPfD76xvCF2yLBUBpaUU3we6g0+WWLTsnwfdCArikPklGTINOhDmjEVFWZhaud6P9BvKTGBI+lJs01vZJDdj9DiccogJG8UB8v9+CwCb18tbaVvnbnjky4axPyYUXFqoZvxsRlK3g8BzF47HU6xXngWrlAo2anl64UEuOxpJBARu9gw9xVyB8QlrjQAgWTMv3TihIS3p/W9X3f//sps8D/HfhoLqQiZMnBYUhncKBALAjiPwTcfzphgumLDxr3nhJS7J7+rw+S3evx9rlpicfnziBgJmwRKGk+aCEjlfusHCOg9vsaETp7ayuka7WVrHAa/Cll8yX1tZJcuNLO2Th4yvlti/ZZMH8ZGw9NVh1Cp+YOFB14kzT1+uR1rZYycy3YUC7YOjThW9j/Ynve/q6sVZl1blM8KkBzvdZ0qDaqTwh/wdtNuQhftjvGwJQl8uDe9SGdEFi36TUsETM5uZGzOgw1YSqhmpTwre2DlaCFb0gmj4s1cySEA8i7DUhFkKDrF/XKo9unS3jzv6cLDkzX23E6oHloTXGLkkIuW4HcbEiLiIJuwYu+4cRk9OsPbC/wH5gMo6B/uMzuIIzeSAUTEqw+ZecNsE7tThz3Atrdjz17/eqrjhnfu7XV71X3Yw+CZ54QrKLQpkAsLt4kAp/Fsdv//srZyZMGZ/BKcbiBuITI1UG8OP09NvkSZY8RMohAgb6Gq8FErEPyY8pOsoeK46SYumCd10nvEa6XN3KAchlV5wmB8oL5Iab/0fOWdQml16YhHMS1qu0puOutAFCQEMZuz1KJk1oB9u7Q2aekoI1cA/WqDasW50ysaQMkXwmYx3rFxqqGKoqg4iQe2B54ZIIWmNJZMLsHg0f3IhnkB8jl19UJnd9b5189hoHEN0gpqvW7pOFs8okL7dENb+6plcOQJffDqk+RDQIdoKw6JCr7Nq1V9av98lTlfMk/7T5ct7NhSCi8MuA/ouOjZHkvDyEW0804gCAqyCX51Psl4YquBCnS2KjetWygCPFGC3GczUaSAg8tK/0WXMzknxfumKuH1qj6/7wwuYFGXFRVza4+mC/GNqcgDEFaZiE1pl1J1/93TNmZP/mu186w1acn+LB7GIFUoGIGxJ2IlhLuxvrz275sDVKis5folhCxQUEkP6gZvMerUaQlGwAswe95/bCczzlBvAMIOfm7JRrrkyUbTvc8vPf1IKd9Sgvw6kp3L5KNhIVw3fJtpaMj5dXVrwhf38tSUpy7fDX3ynP/uMDeeC/o2X8uDiV7533wZuA/8/JjsYGISBJFkZ6GCbO5hR2FoJgZoIQTJyQIFNK1stbb+2U11YfwHT6oVywuEyWnFMI82FK9j3KkIdLgbg4xjA0ye7dTbJ8eY38esc54p1+pcyCL4bMjFQMBOzBQF8lQr4TBxfoKnw5Ycj1FBLX/z0If9aHKEgqQAisLmv2lcmkvnpxpKSq5Ulq0qHOgDgcOJbQnyZ0KbrJ0jc+Nyl17Zaa61DsChy1OLT8CZehlUKVAJBz4cz/lTNm5vzipqvm+7DW92PWt7CzeDDx3AdsbHH2Smd7m5SllErBwtOMaTaQR2Uc/Ec/w+DhBho7BIRRcbHKIUV7S5sk1ayV2TMTZHKpXRbMS5D95T3ys1/WQZfdp+QDyUlWNaPTwIXS7rMXpcmk3K3S3rpbUpO3yH33RMMIJhUsrGFO+89/tUhRoR1sLYJUxJuV9JvjVldjcPVC8Tc5AJoA79iFZRCQtbTErvYEzJ6ZA8er4KTO9MvcmfEgCohIBNYfjjoDBlMW6cYSid57//5Epf//Xp0gsRd+0TRr4UxsC0boMiB2dLJDEgvyJTY9XblAV+yTBmAAiET6bnB0HvgH4zWB27B7j0yL6lRRlGwgTo7EQwlAMKwZQKW7p89it0X1leY7YjfsrDt98eKiR8vL26iCMAZd8AshcB2KSwASLa75L5yYn/i7z18yS+Kh8+3p81CQezDI8VPpfMmed3eIfVwOBohNzejDwi6Up/TFKCcGs0t8epo0YSNMibMDs06uVFa6Idk3YRmQrAxbPtzkkm/eVSGTSm1y/rnJQPIEcSRZICuwyHVLS+TKS72KK6A5rNvthZbArCzW3n63C6oxhxIAJiViOzC+a/itPbg5of6LXNesGfHyzHPNcv7ZyeJ0+WCf71bttoG/d1uxa7CXxkGM2GOCsK8XqkKnvL/BJTNnOORM0O7mwomSB5UefQEQ4e1paYqj49oefr0MEHEcBI8F1Y/YyIQlgGbzVdwAREOKTuDyzdAKKBQ+zNKLt7k0S06Ikea27qi8rGTP4tn501avLr8Ij57lYxyBCuAqRBIrHUoJXSDe+ZMSUnF+5LbPLJA0RyyEuwbyB/c5O4yZKa3nerqvB1vsIOlnnsP0MXIPkVgIEqXTHACtkObnZMIxxeRYmTKZ8gTuaDOMT85YmCjf+UauzJyWIMufa5Wbbtsnz2F2p/95LivoaJQCZwr9uFRgevRvDWB5k7Brjn4AMMBAMGguHNwWlTHE/xB2PZjVTwHcyPk8vrxZWexxGbVzT4+Sg9BUmPCpOtAjf3miQf7wGNjzZKvcfls2llypAtmsabslwUR//7aEREnMzzeCnqBvtBD3SIBTBAL1MFh6sFhYDjAalCIARnccMjbYD3pvCJd13G4dDQMm9ntuBoKKYfNioGsCJYRWR4UaB6Bm//d2Om/56lUz8/KzkvvgpiuKkmR2Drk+rrt5zcQeocSZYpxed4uYECnn2BHLEBJVdXRhnU58Nkl2hhW2AWapPNArjY1eYxBjdi8eb8fmIrvUNfTK6rUdQPImufC8RJk7K0Fyc6IVm89NKU8926RY29tvy4EcwQsZQFRgrctBqpoQVn+INJRxfO2WLJm+cJf86qe5Mq7QIKJs/5Zt3fLuB07AwodlU5Jcc3W6yk+3XcBTbBYC3KGmVT0Be2GF9JrVPwqkyMmp/IF8yqU4uAiy9awX9xAMBjn7gMSKMRWJ9HTYQmEy/RpQgxNDqSRo9lE+PaofhxoB0CzWGZOh4zeZ/GbOlk5njzS1dcuG7dUyozRToAnAPndmhRQX5mLsWjdsAMzQACjMIn0Y3NtH7SZjVnZ1dklMFouBfAFrfG7gmVwaI/k5PrXrrL6hT+3242yeDnuBaz+dBlWgR7ZsdckPYPLKwT0Fu+B4j0uAr3w5S1kYcvYrLIhWRCwckZ/gZbu4468AatHnnyiS275VJXNnx4D7MUt1bS+Eolw6OWCGbVOEnDszySmVlthAOG2yeTPW6N2QxWCeNtO5wIgARXmLMTEYXY0yWA47Cok2CsGJ/dsLf2OPw5BrQkG6mu2jMNG4sUShIRjkGb7ObqgjBqwEg18PmetQIwDsJfZid1c3HEH2eE3lNW2yp7JZ1n1UKaeekoMlASTr6GidkX3OF+gsNgaCvGNPNEpBSV0uWO8ZpRisJMrHbUqpi+M5UKOgx/aA7fcojgCqf8xicC2+IFHmYwNMW7sHumwvDFgskppCgyLMMDD+mTHNDkSg2mmE4/rYG/SJvEmcZXu5XHpz5URZ85ZTqfhoU0EhKGHJlIS9ANmZNpwtSh5A+4m6xjiZEEciCQ0LuLnhJ3w0UC6ge9Brmijwu0r2wgtmx5lRhmAaDCKwSWZNypXxucpikNyAr6axI3rth+WURT0XKNBQNxxU+uj/EYoEgFB96H8fX3/69JJMx66K5ujSQod87dr5kpeRpJBfb95RbF2gM7ESEBvd0wwaAMPtIg5cEhZxu6CLNgaIflc9Q/nGoDFBhx0t2VDluTDb0wsN2Vt63OnDAoZWhFzX0o6d24HhkgryhBhE8yV7Gd7Ir+HFMwkf4XDm6QlSU0vnnDAUAk4nggg4ki0KLoQr5Xp85gXA6puiJH4CYv7hfeWGjP0x7MS8BnLzFRJvYi+u/BA4mprbESMQgUYciTGqn1k0+/OUkkyB/l8RgV3lDdgtmtjX2eWOWrOxugov34pjCw6yEaxWyKVQIwDk6wnsN6fPTSp+9dWKF79w8dSzLvzURF80ov1BE6DQ20B87AuH4U2b0w11EwxEMLhssPlXFB8D61gSA3/kdDuhNuLgMKzZgsvhgOXAMUyEYaYKlV4ipPokHDQt4EBmIAoShoA7aoX4lHqPJeQnzAgrwolCT2o+CDdy45yFCS8t0GdeynWoNTlQZ5WYybTaw/sj4gBYCjuHZwOxyfp3xcRhc9Ze06zpE31cTpbXIMw6rEYzUrFTE3YC7C+ac1PY9+lzTvF/uLPG9Mzruxg45ObpmZmrNtfXQ7IcushPWIQaAWCdFfq++mr9uVecWXLWpYsmAbvE3IuAjxToqIGF6b6hpVMaWyGws1r8fdg9cqBCzEWUJB1j4ozBWSgRwgS73WFwA4cpi3VgonyKg4iJ9ziQY7GmZYgyDDgMepQJdnasIb8CSAAmhJFOarZHZxJWGoYkDIQ9NSdVLTbJBAxNdGZKGYDxUL9++DPK4yBhftU1PGMsZGVnep576s3aLonNnzc5yw8OwF/f4jI7EQgmLzNR4mDJycTvwZ+DafqELESD82f8443d04H8L+ARPQhBNBm6yZCAhFb9A3RcblgwLQ8Wfn3eLjj2ZM/SDLSprUvJBIj8sbYob6e71/TK2m3m7b0JPjv0SLTmU4NgpG3GIORWUquzVaKxX10NvmGUMXgwc8Ab637jzHGpB/swigvrLMGwCm4o71Ob4/bbFIeg9LEjAJrqbwBecX+BgnGPGzC4G+P7K98uv+9fb+4wtbZ3mePs0Qj36JW9VS1SVdch7eAg3disxO9D+m8qLUyTxFjLLSgG7k0V8h/TcApu3yd5HYocgCYAaQ1AcjfCOvvAX9O5BNf+lPrbIKSBvtZXVtNifeqNXS5nh/vBrLmzb7XaY9MDo2BkncYZA9wFjU8cPTUw/sE6MaBqPJbOO9rY5cRmLFUOVU0N/p4CBl9Qic0KXKsW4k//M2YIej6YDKpHuhydl+fgeyzCqNPR2sA3j1di1byQGXTCnML4LrkA3h1BQjM0TBVM4OIYO0DNWFNiFvd8/6M9zVU47r/+/CkpEPb5sXXb297pNre0d2O1wGUJzEigBaC3Y1wPAsoI6jHKsoYiASDXQlnA2h1ljWedOi3fD/2sh+Oc9gCQ1VuaQcm37q0zr/qg6n14mfisdOzvsmdn303BUf8gGGFH0BiE21YL0trg2DJJlTPSMTjcT1L1FQ3TVLZJCR7xokZd3uN3NSIcpL3SODF4eOr7gXJYD5UFf3TW/iz9F8wVSIF8fMQlC5GRCHEQbdF5T9CZ3+tmr+OjCvkBAF334XxSLwGC85qNJaFWDf0hxS4rH1+5/f7S/MTr5k/Nt2anJ5L1R5wFixerAAwdk2/7/obozm7vMyiH63/apbBWIZtCkQCoVePioqKfrFhfNqGmyXndRLBlURDa9IB1K6tplQ07GzaiR/7vllvm/OGRRzbQTvvi+MzMKLM1CgQcO0oM7BlRp1E45ULY8CmpDeA2UjEaghavIyrp8JmJUER+Wg6uXtuuhGTcYWgMXhIDQ49OvpUCM2KAHfIEms0SGWhkw3j3jHzDWUsncitcX9NuQRFAPCAS0YaBZfFdlo2gPGp5ooSW+M36uKGpoDGMIaj0Y3OTHQ48bMq7L237+d4JT2gK64ItusanUPdhcwB8BflpBci2H/Qe7iPpDQAxcPdRhd/X767q+Pnuqm1fBNU9f86E9HFZ6YkWmps3trrk9Q8q10IA+D3IAPju8R8ELPUkplAkAKpLV5eXMwzs9Zv2ND2MYzau03A04Xhv2bJl63H4gPyk0EyZsbDjh999moMDXUaW+EEiVE1TGyTC2GeOmaMXe1KN8TOyso6Um4OciPYGkJ9ebWkNx2/w4DPiNOtBhKQKsbcXByTpFJBRzUgjG0qticisM99R7/OjgXdxCiREJmpBfrzHjDYQjihChv+Nk7ogoWF5e/a5ISH3y3/cXiMP3Z8rUybZlfqSxIbfOaFJVdHgwChZ7UfiYX2YQGATjXYSiPq1QDmaA6BWkGQVueUDdcDOa8PuxsnCQ4SeZJoWLy56Dvb/HHvMGyEAAMInkTjk2FFMawKH+sE/QH6eiPzsJAxfGW9PSSH2qMm0/008GFbCiOFg2VPbLFnjUHBgEBFRjmdieZytqSa85AKHzJoepxCd4bE5atlonbgSV98fVIf+OnG8BzIzS39e3g88UCfVNp1Bl24Al8/JXdTBupFmuuQuOpwMrmEQINYzJuXE2y+wHgpZe3vAcQQqr6rKlgX/VjeH/EMzYMUBqM433rHSppuxIgaSRmhNCGDGJRsCh8oF5OeZH9Z5+TtkUyhyABrYuufZWTx0YsfwGRFf5ymNxa4xjIBB6KJfOfKZg89L0+JGuAw/k8XgE8dU0pG/0/+UyB6oOU+c6TkTa7ZeDXsgoXZAQvUi8/Og2pGCUBIp5tflkGsgceGefKyWBuWHHhVt5EYcfo/EheSGa/1oWDHSfBlFqvKSobOnDQNhQm3GyUpcGuXEGkSQ8DfYeXx9mFVQ+wAG5bVEKQKgdvQMKoljiImgDj5YAp8NKgl3QjSFMgHQIGeH6A7T93hmx/lk6VILPEgU2aACxMDh2B5ZAgbRZVQX9gDMqdqAKLXjMfANg6ORFTS83BqRuYtwX5lbmcfm5yGIKKLZNiG0MBGBbH87TIpLS2JRN5Gdu7rB+hvGRbSZz8qIVmHIGpqw2QXEgdaIxeNiYHpsVVF56rFJiQSF92dOj5dMOCGlLf7W7S61P4FLijzY40+dFKuWF9zDr/bng6Bs+MglrA8R0LBxIEBPLD7wW1waxUUD8dGBfsDfB6Mv+nEkvIbVpyrjkH2glwBDPWTpJ7ZxQ331JN4LBwJwZHAtXx4XX1KSY6UrMHoKOnLuQ56y96ktPlDTKOdMfB8++2dh4Bsx5g7J/DFvsHJEqjZsL26Gf/t33ncpF1pkcA7ANdbade0KQZkvCU5HHA7MYKjgbqzPtWAwOwthtoAsZJXpoIRrdBIBOhrhpptEnJubEZoc+w5SHVblfCQROxrhB1O6Cm0K0UhMMjOilJCQyNcDDqQLvvjiYaZrh+mywXnQMGp4uPexwIK2EndZ96JsbPwCqbeBne+DH8GoOKriuXQfaa8aNWLbkMjmj9kU/gQAwsGkvNwUzhbDny6CxgPGCPBH1m/dK9+ciQUj9oN3d3nUDBqU67hcErFpHkstwJ235yj34N1gt8lqz50VK1ddhp2naswan+N9vnP2ogRVH7L9RHwSkRlTY+CzMFk1mbM97wFvEIvQrt5hCchu3Gcb0cizzuQmBzzAfR/yk9PgzDsOhGFvWY8kJViV0JAbmlRd8X0/liInMqEqqg2088jN7JOPMPMnQiLfxxDKXNYNNylkP7iuJCJIjYEi+Kkxl8KZAKixgx7NiIMnSrOV7qMxAEbYzYzY2w2noLmb3pZTrivAurivH4GO92ghUhHpWuE6m16DWF36xad6T43fQR9kHiY+48F1PhPX59SYeVGWai8NJQPtJiE4qCzc5yMSHh5DJcogqA6MjoLzUnAA3OnIRAcfwQRpqHePxz1jCWCRvOx2ea3TLdkpCcq3H520sK0jTfqNPsZQF6kb6fvhlB9zQw4nK00AAC+kSURBVNgm3c+ZsampFhgBwWAQMoARJDqNoLfanbsr5HNTVsNZJ8JKQRh4DGPuqF8lUnIw90GVx1mXh3JigfucuTWSB595Xz/jB4j0wcjNerLBQ9WXSKUOvKStGlV+vhM4jEpzzzxEJzzwLzHBorQU5DRIGPj9oco33j0+f9kucgAF2fAQXN2KJQ40D/Dt56UqlmwMnh81qUoSGkbCWDD3wS04Et17Mw2nFCNnGP0dCwQgPSaZ+nSoAEeYOLj8mPE3vvSGXHQRg1YaFnAjLGbY2TlGud5m5GBt3DNc5CLix4AjoJDwcA3VxIGcA92Q24MORXDwos4zVKUpgyc3QhkBUYl2AXoZMlT+43ZPNcgv4yDIRKRPgzBi9qenZlAAfOZwLQ6uAWqs8R9ABfEz9TpVDFDajjANpxAjZxj9DeclgO6mzOgEaHqUDQD6eJgYRbVRNIKC7N62V76e8TSCh85WpsCccE5UYtUoYKOwTRGAYQ5JIi0RmMExuZc+Pc1wNBLcVJ2HS4AyRNAtgy0LY/Vx7U/tAF1zZWVGKZmAEu4Naid/sgwSjU68xzzkILScgM9OVGI7uBMzvyBPCp37QHgWqOg+7tY25Rh0OH2qOAVdQRgywDLQ1NPJ3QXC7b1jNoUzAdBDMttGAqDSoFF9hG5XrqPhfHL9ky/LA9+Jw5qcM54hODvCax/rEQd6FwzeaWJL9R6R7GiJLDgCHUOF1yULz9sr3/uvNLn91pyB2Q4FaOSvQxBSOtr82a9bDimWmoMH78uUT1+RinU+jXs0+JA1ADZ+i27MWqE+pLyBg0cRLAjj+Y1ggnPIBz7GDZbLjV6p2Kd/xaxN8lz1+XJKcS7cvDmlt8MpNnB4hsPPw/evCapcJS9gRSEVJfHydMOtlBEBmLULavDHqGyIvToWCEAqffqjxw8/OgZ1Gmd/O6LLrHr9Pbl32nMy9ZS5kH4jhNSwSxhU4DB/cqBzRuUSQJn8BqT8h3vdQGwjQu4991WpbDQR5iyvq8o8kH8qV2TfurtcVvy7Wy5eEiOXXZSCeHzwTIS8jL7z0O8a5fbv1sFTb7fcc2c+iJCh5iP2B7eb1z1g/akl8OMH/fbhCzhOLP4YhM4sF5wXKw/9cJvMKM5WFMcFm/zoJGgvDkt9UGEAQSF/IA9ho4K8uFzcy68kgTiPyTQWCEAabQCMKerofawEfzARba7BZo8//UQ++/QkoAAnihObiD5KCAgCQA7gsON5UDVIKJ5+thn7B5SDShWhiHIASvRZBsslm79qdbtC/u9+M1VuvTlLeSoyvgGNAaRsF53vkJ//qkZ++8d2mQwDoM9dS4GnoTFQ+RQe0W0XBIG0GwABoJUgnZmcjERVJty/y8yZJfLZkpfkvbKpUjwuV3ra4cWnEbEEEQ3Ih3DfhwCO2I50EAfAtoCi9LpcJ5ZqGZ8e1X/DWQjopxWgyWqJs4J/p9DnqD2BmYJqPyz25fkfPiYPP+CU7Ow4DLwTI/k/uD7GWOwXqh2ltkRaztKbt3XJXcvqEVHHwgKUpZOB2EbpbA5NeV9aaSx1r1uahpkf0XbAKXR3Gzb9tPwrhHXfN7+WA4+9Zvn6d2oRlqvP0EQQJihDV4flaQLDL3BmPrzY0ajD8frLJRFjK9x0Y6bsfvJtMXv7VOy/jqoDKuoPVb0G1TsUr0lc1bKOlcFjXtvoyXWgacermiFVDgEQjskYr8uXW6IcjmRSf/a6HsRDNZhrQkqUY+BT4C9/fEF++5mX5bQFswzWP5gHHurl43EvMGapW1dVOUJt+ZyzOiPl/vYRhqYT+a/bs02QWZqomlNtwT3mI7IyJPdz/+qSL38uUXEI3AHI94nYxsGyvJKHmAVfuzldlXegpgd51CX+DECO1VT14y0cXEIEPdYvnJAz60rfgNOn5cg9n35LXvpwHywElT2/tO0rk46qKkT/gZGSJYgQoLKsLwkDiQAvdcI1fwbf0o/GzDlcCYDuwBgEjEykC2kMgoFRrJ8GzmQHae8P3w/yxz+/JHc5fidLr52L9Th3fR72tUGlHJ+fGK5HLYgITvZ75ao2efJZlzwA4d2pcDkOMUU/285COPCJNE2MTITE3YWMP6AQQt0Z+KPWyPhpTIpGOQNPg64CZZKAsKrU0Z/sZDL75IbrS0X+/Ky0NbXArBlEAES6sxbxGXfsFFddrdorYAJHwJmeHBG5AzURsPEBQoB+P7mde7IBNYzvhTsBSIrLyEhixxuz4qD+xmAg8kdhzW+GxP9PP39cliX9XL757TkYTz14psbKMMB48rIo1h928bv2dMsXv3oAHzbBRJgOSgxMJEuukmoq72F2B7vP5IDtv7FD8FCsJZJQALlztyETS3EENtrgPV02yzDeHHi//zN8eBKSqmePF/EXYmXlsyZZe+8/xNXSLrEgAvTwQzkAlwTNO0EIQBD6EBXagyUdjYYUJUAd2ecMJR6b6qCf+KRAtQcNjpPQmFHwCcx5YZnYmRylDkd2ZrQNEn2yqnovOR9yZqCLMAZ/aKquk+eXPSr/d+MrctWn5+FNWJlhvcnBdtLTAG4d8mniOPX9HU6v/PSXNer5k4/mK9Z90xZ6qGK78IdlBJVztBUMy6VxUEVVj/zq4TY5/xybimtAeQQ5CM7y/cXhghMnYcN75LZPMpOkiBhCwsmC+dnyyjM1csGnfy+J/7FUzjilUPzY4ksHniQE7ZWVirNjXxPpmcjpWMANeLEPoKezi9DSHoHU87H2J1wJgOpHuACJ2/n+Xkvazv1SNKHQRFaROK1UQAg019LQISs27ZaCfzwsK39UIwtOmwdPP92Y8YwB/okMhiMRHTzjAH7imSZI/jvljq+nqA08tB7USKjUc6y4KkdZvElyotHNDGJKLYdm93X7OMPz3lvrO9Stqy9LU776ue+frL7yfgZsJ9KTGJBToDCQFMDgKPgxkoOTl1hf+mhcuCBbNq1zyZ8f+6X84tdnS+6Fc2RyfjosHdHXQHxl5kwKh/yKkKExznanvPXCayJbt/njinLFVV598io+yr4UrgRADf8WiU1eOm2LJePtm/2/e+Eqk69oPAYC1vruTsmt3S8L416Xh+f2yKK/lyIw50wImMD+YqBwoI+2xIFM+wAGG73z3nqE2bbKTV/IVJ5qydnoOtNvCZNuAie+1FSjm+nWi34BdV7mM2Z/I0z5t+4x9sUsXED36QOlaM5p4I6B7vQMpL/DZyc7kQh0wyV8YUGs3HP3TLnk4s3ywkuvyxNPzJaGlAkIMwTuHpF+BDs4xQm7/z70b2eHFO9fL8suq5PNmcmmZ1+oDlccGFZ3hHnju6LmzsuWm7+Y6b+pYo2poe5ZxdrTMDA1LUdSUkth9WbDPcQZ7KaTjE9yOAf116DJVCMpVXN333dAZXzwvwtBtKKV9J7OPXVSM17gBxGdSx9G3/n8tQlQBbbL17+SpWZ36u+DCcGLK1qUgc+vH8xBoNNo5V9QP4f7gwGK0n8ZkKh/wiBjn1HzwbrOnZsnM6bnyn80tElZ2VOI2AzXvcB5EkUod6QJv+NhM5RzdYHJ4Sj176+qpTswhppn+oRbYlTiZP8NcwLA5R7ZWJ8UFRVIcfE41c1keX3wdOnFWrEbEV45eEYL8qtROGgosn4kAk+C9d+63SMP/jAL/gHiwLEYrr8UK85MSNp4Rw8kyjLsMRY5HbP6X550Kqu/VEes4SEYXAX9/O2AR6G7ljXIvFlRcsE5yYHZ3yiB36U7MJ0M2AXN/IOIlc53Ms+BpmPLshf9KLDdSJC8vNkKo+nGnOrMtnafbNpC1Sa3PTMWoceXmEA3KmLoPU9mhUfRt8KdACTQqg5Y7+d60WQKmK0BV4guBuKPkt5QWC7KDp9IxoOJrHgMvPd88KFLvv+TRllylk2uvixF+efXNWdO7h1gousuvqORgmciwWnzE+WeO3rVRiEl4EReEj3aHTz2uOET445vZEtGBhyeQGvAZ4EqKOpjkBfDPLgLBkQKgDiNFsLJthP5mWieTK4gsFBRptCNcI/WBWLPSM2ED/0s0KgIKZ5/kIwmGtdj5m+4EgDdmUkM0EktINeLeoCMxt5lhYn0HJTOTjrhNAgA60wkfeZ5Y9s6N/owwjA3DQUjKQ1+mOhBiIjL93gmAeC6n2HL7/jPHAx+Og01CIwNO/v+9Uqr/O6PbfLZa+LljNMSgTiY3YH8wcmoiXGHdaQAUMOSs6uBaMFvfLLXbDOPYJx2wpcYPSbpZ2ijPwCzcMWBYXWCIoHDyhmamdLj4gJT40mWUh8LuIjzDBzqhOttte5GIVTP0R8gkfTKS2KxxgXrD9NdJs5kRGjO6PTqy+RSW3UNLoAEgIlPmIf7A/Q7lBts2Ngp132pUuW59eZsZQREmYFRkrqt/ihrP1zxvqojLGg1MmnCM5B7dF0RLCRqNIdWGo0gakZYIAXdGV11Pxm1CXfql5jQTwBOBjg/3jeIsFyytLZ51axNh55E3NfeaFMFX3ieQ+KBfERIWzQIGwY3Z2Sys0lQ9aWnmqS23qPMf8lJMFBIP/IGsFprE3btdctZF+9X5T75pwIE+bArTmMwS0+VaABRlI0B9w2QeBCZiFw6MEiA/nw8ABzntwlPciokmFwSBBMAwEGZTeOTJ36n13Fu1/EsLiwJwFLgxXIDSg4KuUIlUUdPVR8NfSjgI5LzHp1wMj39XJPs2d8tOVnRyl04uQXl3Qdnlws6fuTZX94r695xqoFfOsEOl99WtWOPCKqQH/Dg9t877ilHfr/85mc5cv65yQbrHyAS6mP9fwYmSJbBmZQeiQ0CYLgv05xG/yuj6IKrGe6ZICE1litG5UDUTFxqIWnnCAMNHUX1P9FVCUsCIKAAYlAAmIArYdaQQ/tEA3ck5RO5KG2n00363W9t80gK9+uDAHzxhgy1bn/gf1vktdXGtt/Dld3U7JcrbyhXj3/102z5wvUZSihGToHEpepAr9z9gwpZ/VavLLsrXa69KlVxCUTioWdxQxhI7OAyg/EIEuCxiDMriUDwrHq4On2S99kuGkAFr2sUrL1+c0urcmZgGD+M0aVAWBKA5YHpHwMPZuBKRxwS1J2D1Q6Jf0F+tHLbNbEEbDlmr3QI/e78Rq7c9PlMFcyjHQOabrk6MetT4s21Pdn9Xz3cgI0/PrnnOxnw+R8lp5+WoNSCHNtk2+ky7Gt3lMl7iJdKK8L/+FKmwk0V9QcEiN8nomhqSUQh4dByAT5mcBIHCBMTzZK1sFHdGGV/WH8KPLUAULUPdUSd/YCXqfJAL6wEVEBQ1jwkxggrejxTWBKAIACNPBJI0Msn+9JAQJOUFsfI9p3dsuTsZMzKcO4RsN6jrz8G7OA9nfgO2VxK/195rU3q693y6cvTEFMA6jzco10Al0HvvN8p511hrPnv/0Gm3Pi5DMgOaDdgGMkoxEe5RHi95uc3WD4NaYjoDBXWhGAjxYgQTJaayw/WhUuLoCrpqn3iZ9bZ2emXLsBByzbYHtTZj23Fph27PRWopLGf+hOv7SdTgXAnAN20Ww+VRCQiwpZi5qe9P2d5IhkHLZP222+EJicRMB6QDSenw3c7MOApPyDyMz99+K192ymXXFOmyvjx9zPl+mvSxINndKCjNX4kMmqdDKSh5oRIzcQTyyUCUZhG+UEKdhWSK6AAkObAozEpREedGf6MGhULdgxrOEKN6e+C/wOn01+JutMt2AAwR2NjTmCdwpUAsEOZyhhlx0j6VuDnKDxpApCBWH2U6lcd6JFJEw3pPJ/pWXaAAxhoE/0DkEOYVOpRcgQ2T7+zdcdA9KtnX2iRJ//RLPGQNWRlYo88iiABqa7tU9ZyO3d75Yk/Fsh5ZycpxCeik5BQltICuQQJSjwIhHIJRgIwCuGo204i19CIKE5QmASTKdoAcPmEZGypBB3EtbrBm2MphSsB0P29Z395DwawT6vJR33fcualdH/hqQmy/n2nTJkci5mLcozDoxpZdq7H770zTyGrnsH5DhH4uquN3X2V2O5bgyCglCG0tHpl3btu7H5EJKJ2+NwvNKs9A8xPIyOdyPYT2amerKpyS2G+TV3TpTiJwWicPDnTk2A1NXswy3sDrs2MFumB0d4BtkCEHADT4YFrPA/bv+FKAJR+B722cc3a9o4bb8hIhKcbBpU9Eh6Nik5mBcmOL5iXIHf8v3Ll7IM6fbLnh6MBvE8kZZRfXvfifY5oXlPAR2vI6+ELkKw81/wkMkR0dQ1sIQHRhj1UDTIugcH2G1t/sW0CRMivPAbPmGZYznJ9TZ+EwTsFRwUAWQm0m/Xl5qnBqE24oP0majOQqvhnLCeS8HBMJPTs68pVb/a+W1PXi1nAHFjVju7mEmnJcudkR8mcWfGICNyhZloO6CMlNpaEgzIPXuvEaxIPmhMrRAc7TG6BKsHERAtmfauKEpyEHYP8zaUH+WV+jut+6spZJ874dBhCFWUvNA90LRaDMpiPz0dLYn24xYdr/2aEVKeRVDDoAvC1VFVz6S/7AvXWE8ZoacZJq0e4EgACEMNApRfeeQ8hpDC1jaJxGqja4U9E1qUI0vGL39ZjWyvCfGONHzyQh3qTg3soZAy+zzJ4sHyDI8AaX3EG5AiMg2XzHXIJTQgEym9XQh5B5E8CkSCRYYzAwwUtHapuJ+se6822VVYpBD/os2w394VQQLp5m5s7oLYFMuDJ2EzhTAAw76n07B/+2tjc0NRnhcu4o02ko2IUcBArV91Yb996Uwb0+3VKDXe8K6cJw+AzEYWhyTiDciYlu/8u5BEzpsUproAIlpbKSDsGMTne9TrW8gIIrurd3OJVcgDeC04QePpaoMrcs8/7Ae4zLiBacZCMMDh72F+HMwFg15MLqNmyzfvYunc6MCDM3pCgAKi0UrthprrsIoe0Y3PQcy/CvxFkAVo9dyJHJhGebsb27u9RSwXGEaT6TxkmQRUYF2tSxkAkBCQCoyWxLqzTgWrECzjMyCZBYPQjpBWBemtOcbQ046TW4zBgOql1OJEf0/T/oXt/VNNWV9+LGCHmUKEBilUnIfjef+XLrx+phz6/QwnoNBHQg3zwLPdxAcpy9+zrUfsDuN5/+E8Nci00CXQsQsLA+AHUABDZRksyZn+Da+FmqoAJeH/11GwA9h/7Aixvv6vCAr8ceKg5xf68Y+ki3AkAhyg1HZUVlb7/pdsrsIAh0+Gc0SgQRGQD+cvDxXLdjZVw3OlUtvgkAtyYwzwc7ExEgmMlBvo9OMyFGXIv2GjD38Ajj9bJ4jMThBuLXFAPsi7ZWUYU4dE2+1OGUVGF2X+IOZ3tA5x8lVBlvvdh32sAFwWAHP96ksDl2EtDgCrsgKA6eNmynPe/e2/dpy+/KDEjNzfai+2hsA0wEGc0t1gRAQzsVFjfXX15stx2R7naEsy9uRWVfWrTEF2B02sQJd6Dm6Qaf5ghrvNyxicRobZgX1mP2lLMSEE/Q6zAKRNj5YJzU5SAkDP+1Mkxal/BaGL/idxsO9V+NGjSW5SD+5VtpUnzs883mXbv89yOZxECACCMBQLAcWBZvdpJsfCe2rquz551ZrKJxjYY8KFAA1QlyQmQCFx+sUOef6kFLrAbYPUHoxyEM2rBbM2DeSjS4rKBDSNi85rbYHlNTz76mr+JFERkSsUbGjxqK3FHhw8S9B74CKyWG65JkbPPdKhyObsS+dPgYZiIpIkHgftJJ7aFmomd2OykADCoQtT/Qm3pLS93Wx76fetbeHxPIOMoWsQMqvRJ+jn6p8DjBwgSOwxd+f63v+ZY9t1v5cEsSKyjaSY7WlNZV2gyFHLTh/+Dv6zFbGyRcxYnSX6uDSGyzGom5GxIVp7IrxAf15Tq0xyS3AJ9DCjVH+xkuKbvxZmzP30KrHunXf692inf+GoWou/GqP0I5A4mT7QZyA/7mdGE/AZrT8FejxL+Be+d6IcnCZ3X7/vdH2vNr77uvhj3uf7X46E/21i8GEsEgP3L9pIh/stD92d9DhaCfXCiGTWaBjQreaSk1upoBU1z6ThkPWwcnnimWcX/Ky2JUa7CM9LgMAR6ejuIA9lhgyMwSlXv45Jt5jU95bTCKm7Hri55c50TMQbjEGwkGQI/syIInPEnlNiUeTK5gNEEK438NPmFXn9I1p95sBvS8+FHTuvd99W/gKZfjgNkUMb87A8YKAEZz2MlKQLg9y/+ksm0urQgz3Yqttx6Oru81lDZLKARsBsCOboHmz87HrO+Rbi7jZZ6VdU9mA3dUt8A60c4w+f2YRrt0GqP7tE4QzJ1wsKvEfrwykrDLfq0qbGY9bPVTj/aIHAPwKTSGLjYjlI7Bkcb8rMNivWHH4S9+3op3D1EmkfkR+gyPzwqWR9/pplLwHv5XiQNQMAYDQO/x8KVYv0uOdue+6/Xu99+7fnxBQvmJ3jB/lo4U4ZSIjHgrraNm6jXhmkuBIFc+xNZuXWXLD03w9ClWBt28nGdTJafeWgKzL0DmRnRyvyX5sG0/OMSIwtEIwuSfjon4dKAiKQJz2iBj579j8T6U1MSG2Ppe21Na9RPf9n8K9T9P3FgQSRqI8BoacsnWY/QGvHHD1KKCEwolMl7KmTNmhXF6XNmxockEeAsSI83tG3nDj/l1hu9ynU7ZQFUiWnuBnisDIkoSyAC0SCCiE2ugG6+UlOwFwB7ArhsYJ7RKh/RyE99/0dbulU7eS84se4gYN6yih7LV7914MDiOTJr9YaI5V8wjHg9VgkA265mAkx4syADW7P+tQkJ06fGejGjhhwnQCLARGk+iQH9CfLchQAflNjrKZwMDmd6cgp0EcZdf0mJZmVhSGLB4cBZc7QiPtsYnDZu7u4XUgYTACX1jzL5YP5tvu/+amg3vOfivVU4IoK/YADieiwTAIKCseGA/3I6jlfXvVoSO3N6nAess/KUESrA0YOfaj4jqIexqYcRfLieJ0JT/YcdkZjt6cobodGRl5wBt/PyuS5jtLH66JeDEutJDmUf/DyUwQPyYKk/n4PI+UEETT99qFo2bfV8HgX8FUeE9T8IksaPUBnjQ1T9uN3SROBUlPjyq8+NT0F03D6Ex4riYBrtCDEYCsGITCTnep+dTA6ZLD+f60O9i4ehMAhYZ/aF8l6EfQk0VbaQa2HDAol5oP6kw0/fI4/WWlaucn8Tj/4XRwT5NZAGnQPM46C7Y+snOQASgXcnjpOFS67cv/uf/2qJAkvcx92D2u4+VEBCJNFEizM7BYJ6uy+dgxBJmHS+UEF+cjBMDHG+aw+DfB6M/GT7ifwQWnqffraRyP8zZCfy882I0A9AGCoFwDrUozF1D6gh1uY2afzmlxMfv/MHjTNjbN7SqZPi/NCn+2FhR7TqR6xQgkw/oqsWhFLNDWLF+lNuQbXltp1u5eNPqzJ1a0ikscnLR5nHk8sbLE//0/V7PPsGDrwdzCPoNyJnDYEIAdCQMAxDLO9s7KEHzb+tfqsratvOjkVTJ8eZcnNsHrDPZqrJyFJH0omHADkVPevTvn/7zh4lzyAx0FyMOqM7sEvRU1/fZ3n4T7WmFa+5f4jafTtQwwgBOEpXRUbzoQDisogcAROlx488/FDOOMTl88Mdtg+yAQtZay15V7kif44LBNTqJID4JLR03MmdidznQMQn7SXS63wU9uG3d+t2l/WuZfWdePJVVORvOPS4VlmPS+XCtJAIB3Box3LQcABRcLT3v25x/PmuHzXGbt/ZsWB8YYw5NzvaQxaUDkb5aoQhIBQ+XiJSE47GZiUTrBp9CvHpkMTtNuIP6i9wrc98YPk9cPluef6lZvMvftPyJp5fhuN1HOw39iGPSDoKBDSlPEq2MfuYg0kLkM7A9QN3fyt1wZWXpsA+3u7hXhvsJYCHEYMj4FmnCGHQkBj6rGGl1JEAJNfxDIRSh12J9Ti4s/GgWR+wJUxBfL1w6mHeuKnT9KMHGxnY8z4cDwW+EtxfQ384cvcgCEQIwEHgGPIHYaQkyRi05Ew/h9/fuu/utBlXXZbKzTd+aAyoetIGd2qgcoCHkn59yJYf55uDkZ78O70V01S5odGrwqIb5shB7D6JKhEfhj3KTdm+bvOzLzQjZkLfn3Nz5d7qajlg5FAcmV66Heeah29xEQIwvL4lnKgq5ACDQFARAqw3TV+7547UyRcgvPaEkhg/9tKbGIkmOcmsTGq5Y89QV2GhioGM+B4qjRXuQCM822vYJAAGgAPNldsQnKQZu/jodJRsPp8TVszLPPpdcgEkpJUH3PKvV1pkxb+7XwUQf4SDbD9TZNY34HBMfyME4Mhg48zPOah/Znl66VLLNcuXW+dcKpYNL8oEPDsfx41XX26bVDLe7i8Zn2BKT4XPPMgJbDZR0XZoX8+de7TEY3GaM9CDPNQJgm4HGqcQmO0xDg4vwyqRSM6NS7Tfb2tH7EKo7JiHSK8FqoMR3w/tK/w4yrr1Ts+jj3cA4aO/D4Pnt/gdpmXLxIyDH+HBPurvJ1xH0jAgQMBF0qEQIOJzMBH5mXJxLMRBa8GZBen2wtzMxMw0R1wU9s23d/X0md99sz29aFyieGM6ZcZcl8ye7kCE3hjs24f7bOC9DSa4ySAEyQitnQBiwMAa2hRXD/zBiIRvjaqkgBGASD+So4ZsH+ZuAMsgbjQ+ImuPtboKQ0a/Bd0wS+Z9oqpyTkJaiKTbrM/cxMRdmdW1blmzrtH3tyd7mHMrjt/iqMTBbb2M6FuOA5L/QxI5AtYyuP8OyRS5YUAgQgAOHQlEfm6hYboSxxenFCafMXdqrmN8LpA6NV7iYqLVbI5dQ8ZOO0Cxqr5DWju61YDeX9Ehu8qaxZ7eLPPnIWBnSSL22UdTcq2e01sPQpWpjTiJ2JDDrbnULBhsssHyDtCeASRhhTSx4DWR8HikYMQOLk+Xr5CdD/A9IifX7uRiKLjjFmPO7pzRKb0n0vN3D7wJMyovk+GGzGDv+Tu4DfxNAkKiQAFLcwtm/Heb5PmnLLJofpEimInx0T48NXf3wAciYNzQ4urdU9lUt7/WtQuv78OxAcdalLsbRQRIFO4YywP2ZfA99SDyx4DAcRpCYQFODQsOlk/h+MnlZxR/6vSZhZKVFo/dc9E+eA2BZylK/f1KAc2BzMSBC+GVqbrRKW1OtxrMfNbR2Qsnm+1SXtsiaYXtMnN6lEyckChpKdEwWw1MgXifBIF77xkDkL7/4cFGbXjhVl4D+Tj8gXwBBDQMZAxE5HeYh0M8UB1W6YhJNRR/mF9d8xy4yTMRnIknIjoFc4w9yLU7EZ3eiHmGBkTdo6mxlm+QiGkPREZZgXoFVY73mUfJR/AdblhqbOqRjVtaZdVrJpmUlS/Tp6ZJTDRse/HexKJUwMPi9SKmHwKlmsBJmHr6PCA2vdLq7JbK2nbZuKOm+72dDZtQ3Docq+bMyVmzYUMNjbqYDlnKGbcjf3X/j3VIEA56iC6bPj7l+9dfNEPG56d4o6B09nh9Zg4+NRqJMsb/g2GGe2TpOzEo2zt7pMvdh9mRXkcNJOpwYvdapVP21zRJdnGHTCi2QoNgU8uEOLvV4CjwLWO2NBBTV0hXjeWTWHAbL/fu022XWj+zPoHv92N0cO0CBalT4A8Ri5dEcLLmDBRK1VufB1uIsTuCSM3fnOH7gPh6PwHzM2luRROmAM0wQGQ897NOII6BM8EDEOJ9foNeh5tbemR/hUu2be+V6r2JUlqQAW4pGfKSKBAWH/J5JT8rUVKT7AhyCsmr+rLilJTKxWQ2+8E4gBHxm7p7PJZ2EN/aJqds29cgz67esxvZH8PxdxwV6tUIRxAAw8DJgOnA77F6xemYQ/v+KxYV33nl2VP9iXE2X0+f10IHmtxiO1xAcWZjInuMQalYVhIE/uasj2kMkX56oevulvqmLun2uqTH5JScXB/87ZvF4TABuW2IvBMNrsNKbgBqRoXofovFrNDP4wFHjAQkxBkYBuzDf+KX8YcPA4n3FKoHEF794jWxH4n1Uuy8vsf7LIcnVZ4+Gzd5n0m9b9xiPYDkmNERKwSw8oNNMoFwWBhUhESEM7yzE6o+tJdOS6prfFKx3yqxpiTJdCRIYV482hsDxx5meCzykuCK3RYlORnxgn5QdTS+OvBXVX/gDwin2Q/YgyCYfL0en7mlvcu8dW+9rHpvf8eOirZ/4k1qDkgUmAbLeIy7Y/Cv7s8x2PT+Jus1/5LTp2WtvO3a07x2m9WM2Rtj2RjhKgS2Gmz97xzxIoBDQAwDvBzUTnAGTpfBGRB51MyNUshec0bs6oYTDywZyAo7u2AB5+0Sr7nHb09wmzIyTPDIG6XCcdG/HzkAzv42yBQYoYfaBajLfGCpFYEA0TKRbmnCAATH9UCVDaJg/DYEeMY1EXkgl77i2lxdq+CqyE9kV/mI6FgamMmS0wUZhX2Mu1dd2yvllT30xtPR2OCramzx2zJMyRPnzM7ypyRHmxyOGHgggssxm1XBiAhPGDBEeZw9WpITEIQ03kakDpr5dX0OfzbaaFBCq9XiA1X3AZbW3ZVN8ug/P3RWN7t/VZgW++uKpi4KEZk04Td+jcG/EQJgzAYUFD32k9sWf35CQaqnqa0bDkGM2ZEONxNiozUSjHiIEFNISEgLgJRqWUBhFrmDPsyQvWBzuZ418iAT/pPrgIDR29DqsvzmiY/gsaT3FhRTh6MURzaOdBwZsXbJKiyw5I0rjE6Gg1OrAxoGhvhOiMfsCsEiiYMiEJCsgziQFVeIC0RRxIGEgXXSa358Ws3szERkInEyWHbYMZBQob4weFIOSA2VHmb1hj4EEunr3b2vt7au3r8dr1Iwx7U4I+9W4WC9T50/NX39ZYumoFSTGYRDVcSLClhBdWJACOIBY8LZhnU/CQ7rxLqxTseSNDGwgjPA4W3u6LZ+tKtWHv7HxmZwCPejzJ8GytUTwLF8JuTfOVb4hnzDgxuwbJnSJ7/x41sXn2m2WHzV9R3myro2uNjqU9Lss+cVySklGWqWCsyGwa8P61ohGV7mLEfOgEjg7EYIrrYucAa9/VMvBI1+rG29zW0u6xvv75XN+1rpyJIOLQ9Jc+ZI1IYNkoQHhTiKceThyMdBIpGRkmzKG1dkzc7Pi7Y7ki2WeHgFJrtPD8JEZLDmNKslcqtmAd+U/4NeVAfuxbwdTh82P/k7Ozr9rvZ2fzvKpPfRZhyMqstZtAxHOQ4i+gEcThyHSys/f9EpSyaNy+hx9/RFY4Y3ZUKjQu6FCywD6Q3ERz2OGfEHf5xlkZph+eUnUW1q6wJc98vjK3e8leOw31DT2l2JHGOWCEQIQIANTI63Pnfh6aVX1DbCRM3vt8ycmC1JCTFKmFeU45DMlDjxYEoaKcA4ADn7KwEYfvT0wvoNAkFqC8gJcOYHl4HBaeJynOy/ZWd5g7y4dh8HJre1PhMYoDj1f57Fkt3neciEMc9P2vAwA0cODnINsTjI7fTgcOEIlpLjp9r3wOdU4OmDSN21dKq4pi4VD4ilWmbg3lCJ4CEyMen6kc32xogUIW7PiqvPKp1UnJ+K2d7mwRLAkpIUgyhN5LAoIDQ4g5HCWH3tKH80RwA5AyHj2byrNuoHf1hXnp9hO7eqoWcfXh+TROBEwPooXTHqHut14MMlOfG3fOGy2d7i/BQLhVBMnJmoAqPwbriJWEnAahkAtQFaO8AzJdrRZE2h2vJ4vdhQ5DGTIJTXtMrr71fU93h8v58z3vGLDftbOeseaWDq/uNZH7hUyDf8CvON4SfVNGTX32Zzg4+hSlIwHu9wJO1vbb0r3m65ecmp41OLclMkMT7GEx8TZUlKsJko8FPc0QkkBJTnkONASLW+dRsron7613f3XrG4aN4/V5e3Bdp0WKI6VMNC/Z7uxFBvx7HWXyPXPUvmF/zwugtm+JMTY0xcl3M26k+gAkcDFHMrzCDFwH8ieRdY/FbM9p1g8fvAZ0dhecG1OARe1i43BH6tLqkA0u8oa2qsa3W/jSJewvE8jgYcTLp+xq+R/9XV5llf61KCGqhvDXkOzhd8PWTmI9zUhJZZyJHcmhhrueXseePTyWElxsV4QQBMIATm+NgoofpVOSzFFwdX/AjfOOIjchnkxmDLoTgvEOPeJ1dujV75Thndh92B4+PC+4jfH40PjxdsR2PbjlYn3dlLTp2aufK2a06lIAq7+iD95ygZRiI2MCcHFvGePDxmc+mAtB+Dyw81IiXmPhATC4iKiffroafGTO//YFfDXozDN/D6KzjewtGIQyfWTbPQ+l44nAkuto3LCybKKm4GEL+8ZH5hQQmWBilJsb4EqGCT42yWRMgJqDr9uAJBfoh95EYQxG63RwkdKWxsbHb5K+raTX9f8VFjbbN7CrJRtsE6fhxCh9dDJ7GxYzXpjn71Z7efc15xXoqnq8cDgfHQINEjgk+J7PzDE2epXqj5yNpjpve7e72+PkjaPB6vxQUOoKm1U6oaOmRvZUtzTXP3+3hlDQ9MgZtqBtbguKVUUmq9jGv9Od4Px0TQ9ROCwNLgKtz76unTs+dNKEgT7LOQtORYjyPBbk6IizJDrQeoKHsHBRwWMJJEAvD86h3yyrr9ctEZJTKpKF3ZG8CmQl5Ys61v096WWSiPmotgTmUknwjJvCOFY0g2cohKs91EMntmkm3L/9y+pBizDTzKcsJW4+ygVxTCB+5wlqdKjMsESLP9XW6PD1Z/PFupznO64LiyuVN2ljd176xs+wivrcJB9v5DHPU4ghORgCkcZ3ujZUf+y37oJwQBbcwFuHfD+Jz4i04pyUrOz0yWDEesPz0lzpucEGMGhVbmGew8pVnBBa+PNpDZsZSz7Cxrkg+2H5BOEOeLPjXRB/mM+YG/rK9KT5cpjY1qc5EeGyg1/NPR4BbOENCU/oVbrphx6YyJOT22aIuFA4xDjIY6nOM5w1MAqHTgfT4sETx+IL+/q7vP6sI6njM/rM7kQH27f3tZY3lHl/cdAO1NHG/goE48OOkBrxGeYzeSDPztJwQBgBThfAOOq2eUpM2CfYZQVpCVGu9V9gLQINiiLIgNoMwh+5cJfPdwg5qGRRTIllW3Ca0Et+2v90EbYV63uYbalp/jYB2oBRkz6XCwGgsA0ASAxjUvYw1anIfZhgYpNEyhWSpoAblOCPQYYotsPTbBQHVH3X1FbavsP9Ba3tjRuxHvv4tjLY7NOAZvUbXiHhFdIz0uI+kIECASMilEXAr/C8uXL5+H31wiXI0lwvjJ4zKhlo33J8RHe2NtUebYmCizPcbKDUN8TxFtQpxADx7g7EvKd8pr2mh85dtT0Wz+y8tbt4CTmAEOQWfnecykYPiMmUYHNVQRgdLShLTdu52fxf252JZamBhnzU2Oi0kFMQBPYLLAaMfT7nJ3d3b1NTR19O5HPiL86zjI4g9GeJapiQuRPpKODQIcm8RoLTCUiRPTEnbtaroI974yc0La4snj0mHthP0C8Taf3Rbtj4MJdzwEhzQxJgFnAVTmcKlA5NdLub1VLRAIwoYZWP/S2p2uD3Y20M/DmFv/o80HEUj+HotJI6tqe2AdasePRBzxOGg8QyTvCBw0oglOwQjP2WNMzSDBgDiB1xrG/cQA31qI4yqz1XTpGdNySycWpokjKRbhwKM8MKwyx8DQAtfYWxAFXwsWpfZj/eqaOqWu2aXUjOgq34tv7jRt2NU4F48oozloLDB/uKexzgHo/tWzDZH3aGtAnVez9BGE11A88WfCXiOpgvucnJzYDTU15+P+jZMKks6dWpxpz0lPhNclG5YEVg+W/WYsDUwgBtihiMjJcCgCgoCNQmbProqG6L+u2LYG7y7GwbLHXF+y0ZF0KAQ0XPQ5eGAEXx/6ZuTOyYLAUFzBRHz8ShyXzyxJnTexKN2SlZagdhhCsgtza64ETGZqanbsb5BX3innEu4yHFU4NGHBZSRFIBCBQKhAgESasgIicHCajR/fw/Hu1HGO7nPnFfqXnFrknzMxncsI7lq887TT8rjUYxr8rnE38jcCgQgEQgoCRGRqXfoTp3z8oKaHwkPO9nNKSkq4SUqnCPJrSETOEQiEEQQOIQaD2kauQS/xBj0aOz/HPADGTleP6ZaSGOixThmOPsY0UCKNj0AgAoEIBCIQiEAgAoEIBCIQiEAgAoEIBCIQiEAgAoEIBCIQiEAgAoEIBCIQiEAgAoEIBCIQiEAgAoEIBCIQiEAgAoEIBCIQiEAgAoEIBCIQiEAgAoEIBCIQiEAgAoEIBCIQiEAgAoEIBCIQiEAgAoEIBCIQiEAgAoEIBCIQiEAgAoEIBCIQiEAgAoEIBCIQiEAgAoEIBCIQiEAgAoEIBCIQiEAgAoEIBCIQiEAgAoFPDgL/H6oLTzE5gU53AAAAAElFTkSuQmCC;" parent="G7cTknpJEeHirmAoxann-1" vertex="1">
          <mxGeometry x="356.25" y="381.25" width="237.5" height="237.5" as="geometry" />
        </mxCell>
        <mxCell id="xId-7PvshustwvXiC7gW-0" value="&lt;font style=&quot;font-size: 15px;&quot;&gt;thanx to Lisa, @teapot418&lt;/font&gt;" style="text;html=1;align=center;verticalAlign=middle;whiteSpace=wrap;rounded=0;fontFamily=Verdana;fontStyle=1;fontColor=#000099;" parent="G7cTknpJEeHirmAoxann-1" vertex="1">
          <mxGeometry x="346.5" y="623.5" width="255" height="30" as="geometry" />
        </mxCell>
      </root>
    </mxGraphModel>
  </diagram>
</mxfile>
